<svg width="507" height="454" viewBox="0 0 507 454" fill="none" xmlns="http://www.w3.org/2000/svg">
<g clip-path="url(#clip0)">
<path d="M170.112 437.959L0 453.939V53.4714L170.112 37.4907V437.959Z" fill="url(#paint0_linear)"/>
<path d="M170.112 437.959L340.224 453.939V53.4714L170.112 37.4907V437.959Z" fill="url(#paint1_linear)"/>
<path d="M507 437.959L340.224 453.939V53.4714L507 37.4907V437.959Z" fill="url(#paint2_linear)"/>
<path d="M170.714 426.842L5.41943 442.198V57.4129L170.714 42.0576V426.842Z" fill="#F5F5F5"/>
<path d="M170.714 426.842L336.009 442.198V57.4129L170.714 42.0576V426.842Z" fill="white"/>
<path d="M501.304 426.842L336.009 442.198V57.4129L501.304 42.0576V426.842Z" fill="#F5F5F5"/>
<path opacity="0.3" d="M170.714 77.3954L45.1626 81.8005V98.9625V122.447V139.609H151.746V118.707L170.714 118.042L199.618 126.963V86.3171L170.714 77.3954Z" fill="#FFD9D9"/>
<path opacity="0.3" d="M170.715 400.648L29.8076 414.197V362.712L170.715 349.163V400.648Z" fill="#FFD9D9"/>
<path opacity="0.3" d="M155.292 241.281L14.3848 254.83V203.344L155.292 189.795V241.281Z" fill="#FFD9D9"/>
<path opacity="0.3" d="M315.235 360.905H253.813V407.874H315.235V360.905Z" fill="#FFD9D9"/>
<path opacity="0.3" d="M295.242 250.662H233.821V297.631H295.242V250.662Z" fill="#FFD9D9"/>
<path opacity="0.3" d="M320.375 103.861H258.954V150.83H320.375V103.861Z" fill="#FFD9D9"/>
<path opacity="0.3" d="M477.82 386.196L382.075 394.325V332.001L477.82 323.872V386.196Z" fill="#FFD9D9"/>
<path opacity="0.3" d="M466.395 166.851L370.651 174.981V112.657L466.395 104.527V166.851Z" fill="#FFD9D9"/>
<path d="M458.154 51.0591C458.154 73.4044 419.093 136.683 419.093 136.683C419.093 136.683 380.033 73.4044 380.033 51.0591C380.033 28.7139 397.521 10.5995 419.094 10.5995C440.666 10.5995 458.154 28.7139 458.154 51.0591Z" fill="url(#paint3_linear)"/>
<path d="M419.094 60.4684C425.615 60.4684 430.902 54.9919 430.902 48.2364C430.902 41.4808 425.615 36.0044 419.094 36.0044C412.572 36.0044 407.285 41.4808 407.285 48.2364C407.285 54.9919 412.572 60.4684 419.094 60.4684Z" fill="url(#paint4_linear)"/>
<path d="M455.238 51.1317C455.238 71.0937 419.094 127.624 419.094 127.624C419.094 127.624 382.949 71.0937 382.949 51.1317C382.949 41.5456 386.757 32.3521 393.536 25.5737C400.314 18.7953 409.508 14.9872 419.094 14.9872C428.68 14.9872 437.873 18.7953 444.652 25.5737C451.43 32.3521 455.238 41.5456 455.238 51.1317Z" fill="#FF0000"/>
<path d="M419.093 59.5373C425.128 59.5373 430.021 54.645 430.021 48.6099C430.021 42.5749 425.128 37.6825 419.093 37.6825C413.058 37.6825 408.166 42.5749 408.166 48.6099C408.166 54.645 413.058 59.5373 419.093 59.5373Z" fill="white"/>
<path d="M128.724 304.267C128.724 326.77 88.5039 390.496 88.5039 390.496C88.5039 390.496 48.2842 326.77 48.2842 304.267C48.2842 281.764 66.2912 263.521 88.5039 263.521C110.717 263.521 128.724 281.764 128.724 304.267Z" fill="url(#paint5_linear)"/>
<path d="M88.5042 313.743C95.2196 313.743 100.664 308.228 100.664 301.424C100.664 294.621 95.2196 289.106 88.5042 289.106C81.7887 289.106 76.3447 294.621 76.3447 301.424C76.3447 308.228 81.7887 313.743 88.5042 313.743Z" fill="url(#paint6_linear)"/>
<path d="M124.648 304.042C124.648 324.004 88.5039 380.534 88.5039 380.534C88.5039 380.534 52.3594 324.004 52.3594 304.042C52.3575 299.294 53.291 294.592 55.1066 290.205C56.9222 285.818 59.5843 281.832 62.9408 278.474C66.2973 275.116 70.2825 272.453 74.6687 270.636C79.0549 268.818 83.7561 267.883 88.5039 267.883C93.2517 267.883 97.9529 268.818 102.339 270.636C106.725 272.453 110.71 275.116 114.067 278.474C117.424 281.832 120.086 285.818 121.901 290.205C123.717 294.592 124.65 299.294 124.648 304.042H124.648Z" fill="#FF0000"/>
<path d="M88.5041 312.447C94.5391 312.447 99.4315 307.555 99.4315 301.52C99.4315 295.485 94.5391 290.593 88.5041 290.593C82.469 290.593 77.5767 295.485 77.5767 301.52C77.5767 307.555 82.469 312.447 88.5041 312.447Z" fill="white"/>
<path d="M320.573 306.898C320.573 326.86 284.429 383.39 284.429 383.39C284.429 383.39 248.284 326.86 248.284 306.898C248.282 302.15 249.216 297.448 251.031 293.061C252.847 288.675 255.509 284.688 258.866 281.33C262.222 277.973 266.207 275.309 270.593 273.492C274.98 271.674 279.681 270.739 284.429 270.739C289.176 270.739 293.878 271.674 298.264 273.492C302.65 275.309 306.635 277.973 309.992 281.33C313.348 284.688 316.01 288.675 317.826 293.061C319.642 297.448 320.575 302.15 320.573 306.898Z" fill="#FF0000"/>
<path d="M284.429 315.303C290.464 315.303 295.356 310.411 295.356 304.376C295.356 298.341 290.464 293.449 284.429 293.449C278.394 293.449 273.501 298.341 273.501 304.376C273.501 310.411 278.394 315.303 284.429 315.303Z" fill="white"/>
<path d="M462.233 284.049C462.233 304.011 426.089 360.541 426.089 360.541C426.089 360.541 389.944 304.011 389.944 284.049C389.944 274.463 393.752 265.27 400.531 258.491C407.309 251.713 416.503 247.905 426.089 247.905C435.675 247.905 444.868 251.713 451.647 258.491C458.425 265.27 462.233 274.463 462.233 284.049Z" fill="#FF0000"/>
<path d="M426.089 292.455C432.124 292.455 437.016 287.563 437.016 281.528C437.016 275.493 432.124 270.6 426.089 270.6C420.054 270.6 415.161 275.493 415.161 281.528C415.161 287.563 420.054 292.455 426.089 292.455Z" fill="white"/>
<path d="M142.927 36.1445C142.927 56.1065 106.783 112.636 106.783 112.636C106.783 112.636 70.6382 56.1065 70.6382 36.1445C70.6363 31.3967 71.5698 26.6951 73.3854 22.3082C75.201 17.9212 77.8631 13.935 81.2196 10.5772C84.5761 7.21931 88.5613 4.55564 92.9475 2.73831C97.3337 0.920978 102.035 -0.0144043 106.783 -0.0144043C111.53 -0.0144043 116.232 0.920978 120.618 2.73831C125.004 4.55564 128.989 7.21931 132.346 10.5772C135.702 13.935 138.364 17.9212 140.18 22.3082C141.996 26.6951 142.929 31.3967 142.927 36.1445H142.927Z" fill="#FF0000"/>
<path d="M106.783 44.5503C112.818 44.5503 117.71 39.6579 117.71 33.6228C117.71 27.5878 112.818 22.6954 106.783 22.6954C100.748 22.6954 95.8555 27.5878 95.8555 33.6228C95.8555 39.6579 100.748 44.5503 106.783 44.5503Z" fill="white"/>
</g>
<defs>
<linearGradient id="paint0_linear" x1="85.0561" y1="453.94" x2="85.0561" y2="37.4906" gradientUnits="userSpaceOnUse">
<stop stop-color="#808080" stop-opacity="0.25"/>
<stop offset="0.53514" stop-color="#808080" stop-opacity="0.12"/>
<stop offset="1" stop-color="#808080" stop-opacity="0.1"/>
</linearGradient>
<linearGradient id="paint1_linear" x1="76162" y1="330989" x2="76162" y2="27370.6" gradientUnits="userSpaceOnUse">
<stop stop-color="#808080" stop-opacity="0.25"/>
<stop offset="0.53514" stop-color="#808080" stop-opacity="0.12"/>
<stop offset="1" stop-color="#808080" stop-opacity="0.1"/>
</linearGradient>
<linearGradient id="paint2_linear" x1="124022" y1="330989" x2="124022" y2="27370.6" gradientUnits="userSpaceOnUse">
<stop stop-color="#808080" stop-opacity="0.25"/>
<stop offset="0.53514" stop-color="#808080" stop-opacity="0.12"/>
<stop offset="1" stop-color="#808080" stop-opacity="0.1"/>
</linearGradient>
<linearGradient id="paint3_linear" x1="419.093" y1="136.683" x2="419.093" y2="10.5995" gradientUnits="userSpaceOnUse">
<stop stop-color="#B3B3B3" stop-opacity="0.25"/>
<stop offset="0.53514" stop-color="#B3B3B3" stop-opacity="0.1"/>
<stop offset="1" stop-color="#B3B3B3" stop-opacity="0.05"/>
</linearGradient>
<linearGradient id="paint4_linear" x1="419.094" y1="60.4684" x2="419.094" y2="36.0044" gradientUnits="userSpaceOnUse">
<stop stop-opacity="0.12"/>
<stop offset="0.55135" stop-opacity="0.09"/>
<stop offset="1" stop-opacity="0.02"/>
</linearGradient>
<linearGradient id="paint5_linear" x1="25076.7" y1="93752.6" x2="25076.7" y2="65527.3" gradientUnits="userSpaceOnUse">
<stop stop-color="#B3B3B3" stop-opacity="0.25"/>
<stop offset="0.53514" stop-color="#B3B3B3" stop-opacity="0.1"/>
<stop offset="1" stop-color="#B3B3B3" stop-opacity="0.05"/>
</linearGradient>
<linearGradient id="paint6_linear" x1="88.5042" y1="313.743" x2="88.5042" y2="289.106" gradientUnits="userSpaceOnUse">
<stop offset="0.00541" stop-opacity="0.12"/>
<stop offset="0.55135" stop-opacity="0.09"/>
<stop offset="1" stop-opacity="0.05"/>
</linearGradient>
<clipPath id="clip0">
<rect width="507" height="453.94" fill="white"/>
</clipPath>
</defs>
</svg>
