<svg width="650" height="493" viewBox="0 0 650 493" fill="none" xmlns="http://www.w3.org/2000/svg">
<g clip-path="url(#clip0)">
<path d="M128.288 5.02026C128.288 5.02026 126.029 13.8328 141.815 38.7427C157.601 63.6526 156.505 67.1812 155.594 74.3043C154.683 81.4274 154.737 85.3274 145.565 94.0741C145.565 94.0741 118.085 103.096 114.413 108.722C110.741 114.347 120.482 134.8 120.482 134.8C120.482 134.8 129.839 159.644 96.2368 169.175C96.2368 169.175 69.943 169.211 62.6522 175.004C62.6522 175.004 65.4739 164.922 56.7033 150.094C47.9327 135.267 60.0162 120.811 60.0162 120.811C60.0162 120.811 69.7453 115.455 75.9219 115.042C82.0985 114.629 84.0575 111.801 80.0855 104.702C80.0855 104.702 74.3403 101.706 66.3845 108.123C58.4286 114.539 52.4857 119.11 45.5543 118.571C38.6229 118.031 28.7381 115.108 22.25 102.282C15.7619 89.4551 12.3471 71.3209 7.48855 63.0415C2.62998 54.7622 0 52.947 0 52.947C0 52.947 6.14061 57.6078 27.3422 41.786C48.5438 25.9642 59.6088 32.7339 59.6088 32.7339C59.6088 32.7339 76.6468 37.3109 79.3786 67.3549C79.3786 67.3549 84.333 95.9852 94.4036 78.6417C94.4036 78.6417 90.9949 68.8766 84.1833 54.4986C77.3717 40.1206 95.6018 26.5873 108.949 22.0582C122.297 17.5291 128.288 5.02026 128.288 5.02026Z" fill="#7B003A"/>
<path d="M18.5658 59.2913L18.5059 59.1415C22.6994 57.3922 42.0439 67.8701 57.5122 76.9702L57.4283 77.108C35.6097 64.2756 21.8068 57.9493 18.5658 59.2913Z" fill="#444053"/>
<path d="M57.1104 76.9104L57.2781 76.8206C69.6312 84.0994 84.4525 93.3373 95.5536 100.838C96.608 101.551 97.7043 102.258 98.8246 102.923L98.6508 103.204C97.5305 102.533 96.4282 101.826 95.3679 101.107C84.2788 93.6129 69.4575 84.1833 57.1104 76.9104Z" fill="#444053"/>
<path d="M98.3281 103.025L98.6037 102.809C120.872 116.174 152.198 112.993 152.473 112.993L149.017 116.917C148.741 116.935 120.752 116.48 98.3281 103.025Z" fill="#444053"/>
<path d="M119.925 25.1555C119.925 25.1555 112.634 45.4585 118.176 59.7646C123.717 74.0707 112.185 109.519 112.185 109.519C112.185 109.519 108.357 124.43 102.198 128.156C102.198 128.156 93.2657 139.245 88.0297 140.515C82.7937 141.785 70.7521 153.036 71.0696 159.26" stroke="#444053" stroke-miterlimit="10"/>
<path d="M129.786 26.5874C129.786 26.5874 124.645 37.0115 116.995 36.9216" stroke="#444053" stroke-miterlimit="10"/>
<path d="M140.09 40.1387C140.09 40.1387 136.98 54.4747 117.72 58.4826" stroke="#444053" stroke-miterlimit="10"/>
<path d="M148.112 61.502C148.112 61.502 139.048 76.0237 119.518 74.2565" stroke="#444053" stroke-miterlimit="10"/>
<path d="M146.416 88.7063C146.416 88.7063 129.36 99.8792 116.462 93.7446" stroke="#444053" stroke-miterlimit="10"/>
<path d="M107.871 26.5874C107.871 26.5874 112.328 36.017 117.259 33.1773" stroke="#444053" stroke-miterlimit="10"/>
<path d="M91.5518 40.9114C91.5518 40.9114 97.5426 53.564 116.288 51.3414" stroke="#444053" stroke-miterlimit="10"/>
<path d="M89.7432 59.9382C89.7432 59.9382 106.23 69.9549 119.602 67.2411" stroke="#444053" stroke-miterlimit="10"/>
<path d="M98.4238 80.2173C98.4238 80.2173 111.472 90.6234 117.595 88.233" stroke="#444053" stroke-miterlimit="10"/>
<path d="M95.3682 87.9753C95.3682 87.9753 98.8968 98.9086 95.4281 100.975" stroke="#444053" stroke-miterlimit="10"/>
<path d="M83.8115 104.372C83.8115 104.372 90.5392 97.6927 88.6641 96.4646" stroke="#444053" stroke-miterlimit="10"/>
<path d="M71.4527 48.8853C71.4527 48.8853 77.3417 76.8565 69.6914 84.4049" stroke="#444053" stroke-miterlimit="10"/>
<path d="M46.8301 115.438C46.8301 115.438 73.4833 98.3218 75.8078 88.2092" stroke="#444053" stroke-miterlimit="10"/>
<path d="M31.3916 103.372C31.3916 103.372 56.4633 91.6837 63.2629 80.4868" stroke="#444053" stroke-miterlimit="10"/>
<path d="M48.2266 39.9231C48.2266 39.9231 60.358 60.1601 52.7796 74.3225" stroke="#444053" stroke-width="0.75" stroke-miterlimit="10"/>
<path d="M23.2148 84.9921C23.2148 84.9921 41.7864 77.4736 45.5427 70.2307" stroke="#444053" stroke-width="0.75" stroke-miterlimit="10"/>
<path d="M27.1328 46.0935C27.1328 46.0935 33.3453 57.548 30.4517 62.5264" stroke="#444053" stroke-width="0.75" stroke-miterlimit="10"/>
<path d="M91.498 113.862C91.498 113.862 108.272 111.615 110.07 115.995" stroke="#444053" stroke-miterlimit="10"/>
<path d="M118.319 148.237C118.319 148.237 117.415 129.893 106.937 122.8" stroke="#444053" stroke-miterlimit="10"/>
<path d="M72.3213 121.243C72.3213 121.243 89.9284 123.322 96.1528 134.806" stroke="#444053" stroke-miterlimit="10"/>
<path d="M101.851 161.543C101.851 161.543 104.57 148.105 91.708 138.604" stroke="#444053" stroke-miterlimit="10"/>
<path d="M59.6387 137.478C59.6387 137.478 74.2443 136.729 82.0684 143.672" stroke="#444053" stroke-miterlimit="10"/>
<path d="M79.7679 164.041C79.7679 164.041 78.402 153.378 74.5918 151.359" stroke="#444053" stroke-miterlimit="10"/>
<path opacity="0.1" d="M306.306 118.247C273.434 134.788 237.483 142.001 202.43 147.56C167.378 153.12 131.996 157.403 97.453 169.025C75.239 176.502 51.7609 188.61 40.8096 207.421C30.2538 225.483 34.1538 244.744 39.7373 261.53C43.9309 274.153 49.3226 286.925 60.8011 294.641C68.7809 299.997 79.139 302.507 87.8377 307.066C118.097 322.912 123.004 360.079 118.127 394.269C115.839 410.306 111.909 426.554 111.963 442.274C112.017 457.994 116.552 473.57 129.025 482.856C141.39 492.057 159.955 493.927 178.15 492.441C215.119 489.445 252.292 474.115 287.698 457.64C366.094 421.174 441.189 377.698 516.111 334.331C543.824 318.281 571.664 302.154 597.179 283.145C611.347 272.589 625.336 260.464 631.878 245.954C640.211 227.538 633.855 207.475 617.056 199.189C588.899 185.291 541.823 203.617 517.543 185.464C504.129 175.472 502.38 157.188 504.566 140.024C509.251 103.144 528.614 62.4964 513.834 31.2901C503.686 9.85487 476.979 -2.61806 447.815 0.467222C417.262 3.70228 383.402 23.7896 374.296 50.8681C364.938 78.7555 335.331 103.611 306.306 118.247Z" fill="#BD809C"/>
<path opacity="0.1" d="M385.115 470.91C418.238 470.91 445.089 464.277 445.089 456.094C445.089 447.912 418.238 441.279 385.115 441.279C351.992 441.279 325.141 447.912 325.141 456.094C325.141 464.277 351.992 470.91 385.115 470.91Z" fill="#E7D1DC"/>
<path d="M642.518 81.3018H88.1554C84.0229 81.3018 80.6729 84.6518 80.6729 88.7843V396.324C80.6729 400.456 84.0229 403.807 88.1554 403.807H642.518C646.65 403.807 650 400.456 650 396.324V88.7843C650 84.6518 646.65 81.3018 642.518 81.3018Z" fill="url(#paint0_linear)"/>
<path d="M641.679 85.8367H89.0597C84.9272 85.8367 81.5771 89.1867 81.5771 93.3192V395.251C81.5771 399.384 84.9272 402.734 89.0597 402.734H641.679C645.811 402.734 649.161 399.384 649.161 395.251V93.3192C649.161 89.1867 645.811 85.8367 641.679 85.8367Z" fill="white"/>
<path d="M641.679 85.8367H89.0597C84.9272 85.8367 81.5771 89.1867 81.5771 93.3192V395.251C81.5771 399.384 84.9272 402.734 89.0597 402.734H641.679C645.811 402.734 649.161 399.384 649.161 395.251V93.3192C649.161 89.1867 645.811 85.8367 641.679 85.8367Z" fill="white"/>
<path opacity="0.04" d="M641.679 85.8367H89.0597C84.9272 85.8367 81.5771 89.1867 81.5771 93.3192V395.251C81.5771 399.384 84.9272 402.734 89.0597 402.734H641.679C645.811 402.734 649.161 399.384 649.161 395.251V93.3192C649.161 89.1867 645.811 85.8367 641.679 85.8367Z" fill="#5A5773"/>
<path d="M646.286 82.2004H84.4646C83.7004 82.2004 82.9674 82.504 82.427 83.0444C81.8866 83.5848 81.583 84.3178 81.583 85.082V97.2794H649.167V85.082C649.167 84.3178 648.863 83.5848 648.323 83.0444C647.783 82.504 647.05 82.2004 646.286 82.2004Z" fill="#5A5773"/>
<path d="M92.9116 93.6248C95.0622 93.6248 96.8057 91.8813 96.8057 89.7307C96.8057 87.5801 95.0622 85.8367 92.9116 85.8367C90.761 85.8367 89.0176 87.5801 89.0176 89.7307C89.0176 91.8813 90.761 93.6248 92.9116 93.6248Z" fill="white"/>
<path d="M103.396 93.6248C105.547 93.6248 107.29 91.8813 107.29 89.7307C107.29 87.5801 105.547 85.8367 103.396 85.8367C101.245 85.8367 99.502 87.5801 99.502 89.7307C99.502 91.8813 101.245 93.6248 103.396 93.6248Z" fill="white"/>
<path d="M113.879 93.6248C116.03 93.6248 117.773 91.8813 117.773 89.7307C117.773 87.5801 116.03 85.8367 113.879 85.8367C111.729 85.8367 109.985 87.5801 109.985 89.7307C109.985 91.8813 111.729 93.6248 113.879 93.6248Z" fill="white"/>
<path opacity="0.1" d="M586.743 167.426H125.676C122.304 167.426 119.571 170.159 119.571 173.531V343.443C119.571 346.814 122.304 349.548 125.676 349.548H586.743C590.115 349.548 592.848 346.814 592.848 343.443V173.531C592.848 170.159 590.115 167.426 586.743 167.426Z" fill="#A34C75"/>
<path d="M598.129 161.526L137.212 149.779C133.842 149.693 131.04 152.356 130.954 155.726L126.625 325.583C126.539 328.953 129.201 331.755 132.572 331.841L593.489 343.589C596.859 343.675 599.661 341.012 599.747 337.642L604.076 167.785C604.162 164.414 601.5 161.612 598.129 161.526Z" fill="white"/>
<path opacity="0.2" d="M201.903 188.268L531.591 196.649" stroke="#5A5773" stroke-miterlimit="10"/>
<path opacity="0.2" d="M201.25 214.023L530.938 222.404" stroke="#5A5773" stroke-miterlimit="10"/>
<path opacity="0.2" d="M200.598 239.771L530.285 248.152" stroke="#5A5773" stroke-miterlimit="10"/>
<path opacity="0.2" d="M199.938 265.526L529.632 273.907" stroke="#5A5773" stroke-miterlimit="10"/>
<path opacity="0.2" d="M229.904 259.295L229.071 292.035" stroke="#5A5773" stroke-miterlimit="10" stroke-dasharray="12 12"/>
<path opacity="0.2" d="M199.285 291.281L528.973 299.656" stroke="#5A5773" stroke-miterlimit="10"/>
<path opacity="0.2" d="M266.358 292.982L267.598 244.175" stroke="#5A5773" stroke-miterlimit="10" stroke-dasharray="12 12"/>
<path opacity="0.2" d="M484.455 240.317C478.578 240.826 472.839 237.531 469.322 234.068C465.68 230.474 463.038 226.052 460.486 221.751C459.677 220.391 458.838 218.989 457.993 217.635C453.542 210.578 449.097 205.833 444.011 202.7C442.147 201.552 440.149 200.639 438.062 199.98C437.862 200.456 437.575 200.891 437.217 201.262C436.448 202.063 435.392 202.527 434.282 202.55H434.084C433.088 202.523 432.134 202.143 431.393 201.476C430.652 200.81 430.172 199.902 430.04 198.914C428.154 199.003 426.292 199.385 424.523 200.046C419.293 202.017 415.321 206.253 411.708 210.428C407.335 215.472 403.117 220.762 399.187 226.16C398.389 227.25 397.59 228.347 396.791 229.449C392.526 235.404 388.116 241.557 382.413 246.367C374.757 252.861 365.549 255.659 357.779 253.856C348.457 251.693 341.789 243.456 337.026 236.518C336.427 235.62 335.828 234.721 335.181 233.804C330.736 227.215 326.141 220.403 319.359 216.431C310.427 211.189 298.092 212.094 290.004 218.57C286.062 221.727 283.103 226.016 280.233 230.162C279.251 231.588 278.232 233.062 277.184 234.475C271.792 241.718 266.359 245.648 260.499 246.499C258.176 246.757 255.831 246.757 253.508 246.499C251.963 246.391 250.363 246.271 248.799 246.313C244.898 246.48 241.107 247.652 237.793 249.717C234.479 251.782 231.755 254.669 229.886 258.097L229.06 292.581L488.049 299.171L489.499 242.12C489.055 242.361 488.566 242.506 488.062 242.546C487.558 242.585 487.052 242.518 486.576 242.348C486.1 242.178 485.665 241.91 485.299 241.561C484.934 241.212 484.646 240.79 484.455 240.322V240.317Z" fill="#88194E"/>
<path opacity="0.2" d="M306.701 213.022L304.646 293.958" stroke="#5A5773" stroke-miterlimit="10" stroke-dasharray="12 12"/>
<path opacity="0.2" d="M342.819 243.989L341.525 294.893" stroke="#5A5773" stroke-miterlimit="10" stroke-dasharray="12 12"/>
<path opacity="0.2" d="M378.74 249.962L377.578 295.81" stroke="#5A5773" stroke-miterlimit="10" stroke-dasharray="12 12"/>
<path opacity="0.2" d="M413.602 208.93L411.373 296.666" stroke="#5A5773" stroke-miterlimit="10" stroke-dasharray="12 12"/>
<path opacity="0.2" d="M449.079 205.869L446.749 297.571" stroke="#5A5773" stroke-miterlimit="10" stroke-dasharray="12 12"/>
<path opacity="0.2" d="M488.373 240.346L486.888 298.589" stroke="#5A5773" stroke-miterlimit="10" stroke-dasharray="12 12"/>
<path d="M437.703 195.936C437.305 195.554 436.836 195.254 436.322 195.054C435.808 194.853 435.259 194.756 434.708 194.768C433.72 194.786 432.77 195.152 432.026 195.802C431.281 196.452 430.791 197.344 430.64 198.321C430.603 198.558 430.586 198.799 430.592 199.04C430.592 199.201 430.592 199.363 430.628 199.519C430.755 200.457 431.196 201.325 431.88 201.981C432.624 202.722 433.622 203.15 434.672 203.179H434.869C435.981 203.159 437.039 202.698 437.811 201.897C438.167 201.524 438.453 201.09 438.655 200.615C438.812 200.242 438.913 199.849 438.955 199.447C438.97 199.265 438.97 199.083 438.955 198.902C438.952 198.349 438.84 197.803 438.625 197.294C438.41 196.785 438.097 196.324 437.703 195.936ZM437.493 200.25C437.359 200.541 437.175 200.807 436.948 201.034C436.565 201.43 436.081 201.712 435.548 201.85C435.015 201.988 434.454 201.977 433.927 201.817C433.401 201.657 432.928 201.356 432.562 200.945C432.195 200.534 431.949 200.03 431.85 199.489C431.817 199.333 431.799 199.175 431.796 199.016C431.79 198.774 431.814 198.532 431.868 198.297C432.015 197.643 432.377 197.058 432.896 196.634C433.415 196.211 434.062 195.973 434.731 195.96H434.869C435.639 195.98 436.371 196.295 436.915 196.841C437.458 197.386 437.77 198.12 437.787 198.89C437.787 198.95 437.787 199.016 437.787 199.075C437.776 199.484 437.676 199.885 437.493 200.25Z" fill="#7B003A"/>
<path d="M488.409 243.156C490.394 243.156 492.004 241.547 492.004 239.562C492.004 237.577 490.394 235.967 488.409 235.967C486.424 235.967 484.814 237.577 484.814 239.562C484.814 241.547 486.424 243.156 488.409 243.156Z" fill="#7B003A"/>
<path d="M431.796 199.016C431.799 199.175 431.817 199.333 431.85 199.489C431.442 199.489 431.035 199.489 430.652 199.519C428.763 199.609 426.9 199.991 425.128 200.651C419.898 202.622 415.926 206.858 412.308 211.033C407.934 216.072 403.717 221.368 399.781 226.759C398.984 227.85 398.199 228.952 397.385 230.054C393.113 236.009 388.704 242.156 383.007 246.972C375.344 253.46 366.13 256.258 358.354 254.455C349.044 252.298 342.377 244.055 337.584 237.117C336.985 236.225 336.35 235.32 335.739 234.404C331.288 227.814 326.687 221.002 319.905 217.03C310.973 211.788 298.626 212.693 290.55 219.169C286.662 222.32 283.666 226.61 280.797 230.755C279.808 232.181 278.79 233.661 277.741 235.069C272.35 242.312 266.91 246.242 261.051 247.092C258.728 247.347 256.383 247.347 254.06 247.092C252.492 246.949 250.919 246.887 249.345 246.906C245.165 247.08 241.115 248.411 237.647 250.751C234.178 253.091 231.428 256.347 229.701 260.158L228.599 259.679C230.421 255.663 233.321 252.231 236.978 249.764C240.634 247.298 244.903 245.894 249.309 245.708C250.925 245.685 252.541 245.749 254.15 245.9C256.386 246.143 258.641 246.143 260.877 245.9C266.407 245.103 271.607 241.323 276.777 234.35C277.813 232.954 278.826 231.486 279.808 230.066C282.726 225.873 285.745 221.493 289.819 218.222C294.138 214.844 299.365 212.828 304.833 212.43C310.302 212.032 315.766 213.27 320.528 215.988C327.549 220.103 332.228 227.029 336.757 233.733C337.356 234.631 337.955 235.53 338.596 236.435C343.239 243.192 349.709 251.214 358.642 253.281C366.046 255 374.871 252.298 382.246 246.05C387.811 241.335 392.19 235.266 396.414 229.347C397.199 228.245 397.996 227.143 398.81 226.046C402.77 220.655 407.006 215.311 411.391 210.237C415.111 205.947 419.179 201.592 424.697 199.525C426.607 198.819 428.617 198.415 430.652 198.327C431.053 198.327 431.466 198.291 431.85 198.327C431.804 198.553 431.786 198.785 431.796 199.016Z" fill="#7B003A"/>
<path d="M488.619 240.125C481.591 242.749 474.163 238.831 469.933 234.673C466.291 231.079 463.649 226.651 461.097 222.35C460.288 220.996 459.449 219.588 458.599 218.24C454.147 211.177 449.702 206.432 444.61 203.299C442.746 202.154 440.748 201.243 438.661 200.585C438.278 200.459 437.888 200.352 437.463 200.25C437.645 199.886 437.745 199.488 437.756 199.082C438.152 199.183 438.541 199.297 438.955 199.417C441.156 200.107 443.263 201.069 445.227 202.281C450.487 205.51 455.052 210.374 459.605 217.599C460.462 218.965 461.3 220.373 462.121 221.745C464.637 225.974 467.237 230.354 470.766 233.816C474.738 237.722 481.693 241.431 488.193 239.005L488.619 240.125Z" fill="#7B003A"/>
<path opacity="0.5" d="M213.71 183.194L202.57 182.91C202.273 182.902 202.025 183.138 202.018 183.435L201.908 187.747C201.9 188.045 202.135 188.292 202.433 188.3L213.572 188.584C213.87 188.591 214.117 188.356 214.125 188.059L214.235 183.747C214.242 183.449 214.007 183.201 213.71 183.194Z" fill="#E7D1DC"/>
<path d="M213.047 208.941L201.908 208.658C201.61 208.65 201.363 208.885 201.355 209.183L201.246 213.495C201.238 213.792 201.473 214.04 201.771 214.048L212.91 214.331C213.208 214.339 213.455 214.104 213.463 213.806L213.573 209.494C213.58 209.197 213.345 208.949 213.047 208.941Z" fill="#7B003A"/>
<path opacity="0.5" d="M212.391 234.701L201.252 234.417C200.954 234.409 200.707 234.645 200.699 234.942L200.589 239.254C200.582 239.552 200.817 239.799 201.115 239.807L212.254 240.091C212.552 240.099 212.799 239.863 212.807 239.566L212.916 235.254C212.924 234.956 212.689 234.709 212.391 234.701Z" fill="#E7D1DC"/>
<path opacity="0.5" d="M211.736 260.449L200.597 260.165C200.299 260.157 200.051 260.392 200.044 260.69L199.934 265.002C199.926 265.3 200.162 265.547 200.459 265.555L211.599 265.839C211.896 265.846 212.144 265.611 212.151 265.313L212.261 261.001C212.269 260.704 212.034 260.456 211.736 260.449Z" fill="#E7D1DC"/>
<path opacity="0.5" d="M211.08 286.202L199.94 285.918C199.643 285.911 199.395 286.146 199.388 286.444L199.278 290.756C199.27 291.053 199.505 291.301 199.803 291.308L210.942 291.592C211.24 291.6 211.487 291.365 211.495 291.067L211.605 286.755C211.613 286.457 211.377 286.21 211.08 286.202Z" fill="#E7D1DC"/>
<path opacity="0.5" d="M233.746 297.565L222.606 297.282C222.309 297.274 222.061 297.509 222.054 297.807L221.944 302.119C221.936 302.416 222.171 302.664 222.469 302.672L233.608 302.955C233.906 302.963 234.154 302.728 234.161 302.43L234.271 298.118C234.279 297.821 234.043 297.573 233.746 297.565Z" fill="#E7D1DC"/>
<path opacity="0.5" d="M271.774 298.534L260.635 298.25C260.337 298.242 260.09 298.478 260.082 298.775L259.972 303.087C259.964 303.385 260.2 303.632 260.497 303.64L271.637 303.924C271.934 303.932 272.182 303.696 272.189 303.399L272.299 299.087C272.307 298.789 272.072 298.542 271.774 298.534Z" fill="#E7D1DC"/>
<path d="M308.708 301.171L297.566 300.837C297.268 300.828 297.019 301.062 297.01 301.36L296.881 305.673C296.872 305.971 297.106 306.22 297.404 306.228L308.547 306.563C308.844 306.572 309.093 306.338 309.102 306.04L309.231 301.726C309.24 301.429 309.006 301.18 308.708 301.171Z" fill="#7B003A"/>
<path opacity="0.5" d="M346.94 300.449L335.801 300.165C335.503 300.157 335.256 300.392 335.248 300.69L335.138 305.002C335.13 305.3 335.366 305.547 335.663 305.555L346.803 305.839C347.1 305.846 347.348 305.611 347.355 305.313L347.465 301.001C347.473 300.704 347.238 300.456 346.94 300.449Z" fill="#E7D1DC"/>
<path opacity="0.5" d="M382.988 301.373L371.849 301.089C371.551 301.081 371.303 301.316 371.296 301.614L371.186 305.926C371.178 306.224 371.414 306.471 371.711 306.479L382.851 306.763C383.148 306.77 383.396 306.535 383.403 306.238L383.513 301.926C383.521 301.628 383.286 301.38 382.988 301.373Z" fill="#4CAF50"/>
<path d="M416.78 302.228L405.641 301.944C405.343 301.936 405.095 302.171 405.088 302.469L404.978 306.781C404.97 307.079 405.206 307.326 405.503 307.334L416.642 307.618C416.94 307.625 417.188 307.39 417.195 307.092L417.305 302.78C417.313 302.483 417.078 302.235 416.78 302.228Z" fill="#7B003A"/>
<path d="M452.409 303.135L441.269 302.851C440.972 302.844 440.724 303.079 440.717 303.376L440.607 307.688C440.599 307.986 440.834 308.234 441.132 308.241L452.271 308.525C452.569 308.533 452.817 308.297 452.824 308L452.934 303.688C452.942 303.39 452.706 303.143 452.409 303.135Z" fill="#7B003A"/>
<path d="M490.703 306.636L480.147 306.319C479.687 306.305 479.303 306.667 479.289 307.127L479.178 310.853C479.164 311.313 479.526 311.697 479.985 311.711L490.541 312.027C491.001 312.041 491.385 311.68 491.399 311.22L491.511 307.493C491.525 307.033 491.163 306.649 490.703 306.636Z" fill="#7B003A"/>
<path d="M587.623 362.739C588.995 362.739 590.325 363.215 591.386 364.085C592.447 364.956 593.173 366.167 593.441 367.513C593.708 368.858 593.501 370.255 592.854 371.466C592.208 372.676 591.161 373.624 589.894 374.149C588.626 374.675 587.215 374.744 585.902 374.346C584.589 373.948 583.455 373.106 582.692 371.965C581.93 370.825 581.587 369.455 581.721 368.089C581.856 366.724 582.459 365.447 583.43 364.477C583.979 363.924 584.633 363.487 585.353 363.189C586.072 362.89 586.844 362.738 587.623 362.739ZM587.623 361.817C586.266 361.817 584.939 362.219 583.811 362.974C582.683 363.728 581.804 364.8 581.285 366.054C580.766 367.308 580.631 368.688 580.896 370.019C581.162 371.35 581.817 372.572 582.777 373.531C583.738 374.49 584.961 375.142 586.292 375.405C587.624 375.669 589.003 375.531 590.257 375.01C591.51 374.489 592.58 373.608 593.333 372.478C594.085 371.349 594.485 370.021 594.483 368.664C594.482 367.764 594.304 366.873 593.959 366.042C593.614 365.211 593.108 364.456 592.471 363.82C591.834 363.184 591.078 362.68 590.246 362.336C589.415 361.992 588.523 361.816 587.623 361.817Z" fill="#7B003A"/>
<path d="M585.784 370.689L586.144 370.21C586.494 370.554 586.964 370.749 587.456 370.755C588.055 370.755 588.528 370.449 588.528 369.964C588.528 369.479 588.091 369.089 586.881 369.089V368.538C587.959 368.538 588.366 368.179 588.366 367.712C588.366 367.244 588.001 367.023 587.468 367.023C587.047 367.036 586.645 367.199 586.335 367.484L585.952 367.023C586.379 366.645 586.928 366.433 587.498 366.424C588.426 366.424 589.115 366.873 589.115 367.658C589.115 368.209 588.714 368.574 588.127 368.772V368.802C588.429 368.834 588.71 368.972 588.921 369.191C589.131 369.41 589.257 369.697 589.277 370C589.277 370.851 588.474 371.366 587.516 371.366C587.196 371.379 586.877 371.325 586.579 371.209C586.281 371.092 586.01 370.915 585.784 370.689Z" fill="#7B003A"/>
<path d="M615.954 363.141C617.326 363.141 618.656 363.616 619.717 364.487C620.778 365.357 621.504 366.568 621.772 367.914C622.039 369.26 621.832 370.657 621.186 371.867C620.539 373.077 619.492 374.026 618.225 374.551C616.957 375.076 615.546 375.145 614.233 374.747C612.92 374.349 611.786 373.508 611.023 372.367C610.261 371.226 609.918 369.856 610.052 368.491C610.187 367.125 610.79 365.848 611.761 364.878C612.31 364.326 612.964 363.888 613.683 363.589C614.403 363.291 615.175 363.139 615.954 363.141ZM615.954 362.218C614.598 362.218 613.271 362.62 612.143 363.374C611.015 364.128 610.136 365.199 609.617 366.453C609.098 367.706 608.962 369.085 609.227 370.416C609.491 371.746 610.144 372.969 611.104 373.928C612.063 374.887 613.285 375.541 614.616 375.805C615.947 376.07 617.326 375.934 618.579 375.415C619.833 374.896 620.904 374.017 621.658 372.888C622.411 371.76 622.814 370.434 622.814 369.078C622.815 368.177 622.638 367.284 622.293 366.452C621.949 365.619 621.444 364.862 620.806 364.225C620.169 363.588 619.413 363.083 618.58 362.739C617.748 362.394 616.855 362.217 615.954 362.218Z" fill="#5A5773"/>
<path d="M616.044 368.359C616.044 368.065 616.044 367.694 616.085 367.4H616.044C615.876 367.658 615.684 367.915 615.516 368.173L614.318 369.737H617.559V370.366H613.479V369.862L615.912 366.663H616.804V371.756H616.061L616.044 368.359Z" fill="#5A5773"/>
<path d="M600.324 365.16C600.442 365.044 600.6 364.98 600.764 364.98C600.929 364.98 601.087 365.044 601.205 365.16L604.296 368.263C604.354 368.319 604.4 368.386 604.432 368.46C604.463 368.534 604.479 368.614 604.479 368.694C604.479 368.775 604.463 368.854 604.432 368.929C604.4 369.003 604.354 369.07 604.296 369.126L601.253 372.181C601.197 372.243 601.128 372.292 601.052 372.326C600.975 372.36 600.893 372.377 600.809 372.377C600.726 372.377 600.643 372.36 600.567 372.326C600.491 372.292 600.422 372.243 600.366 372.181C600.305 372.125 600.257 372.057 600.224 371.981C600.19 371.905 600.173 371.823 600.173 371.741C600.173 371.658 600.19 371.576 600.224 371.5C600.257 371.424 600.305 371.356 600.366 371.3L602.978 368.664L600.324 366.04C600.262 365.984 600.213 365.916 600.179 365.839C600.145 365.763 600.128 365.68 600.128 365.597C600.128 365.513 600.145 365.431 600.179 365.354C600.213 365.278 600.262 365.21 600.324 365.154V365.16Z" fill="#5A5773"/>
<path d="M595.052 368.664C595.049 369.998 595.443 371.303 596.183 372.413C596.922 373.523 597.975 374.389 599.207 374.901C600.439 375.412 601.795 375.547 603.103 375.287C604.412 375.027 605.614 374.385 606.557 373.442C607.501 372.499 608.143 371.297 608.402 369.988C608.662 368.68 608.528 367.324 608.016 366.092C607.504 364.86 606.639 363.807 605.528 363.067C604.418 362.328 603.114 361.934 601.78 361.937C599.996 361.938 598.285 362.647 597.024 363.909C595.763 365.17 595.053 366.88 595.052 368.664ZM596.088 368.664C596.086 367.343 596.542 366.062 597.378 365.039C598.215 364.016 599.381 363.315 600.676 363.056C601.972 362.796 603.317 362.994 604.483 363.616C605.649 364.237 606.564 365.244 607.07 366.465C607.577 367.685 607.645 369.043 607.262 370.308C606.879 371.573 606.069 372.665 604.971 373.4C603.873 374.134 602.553 374.465 601.238 374.336C599.923 374.206 598.694 373.625 597.76 372.69C597.228 372.163 596.806 371.536 596.52 370.845C596.233 370.154 596.086 369.413 596.088 368.664Z" fill="#5A5773"/>
<path opacity="0.2" d="M233.325 113.257H101.814C100.537 113.257 99.502 114.292 99.502 115.569V125.233C99.502 126.51 100.537 127.545 101.814 127.545H233.325C234.602 127.545 235.638 126.51 235.638 125.233V115.569C235.638 114.292 234.602 113.257 233.325 113.257Z" fill="#5A5773"/>
<path d="M423.666 453.59C422.671 449.996 422.024 446.821 422.024 446.821C422.024 446.821 422.066 442.867 420.179 439.961L420.143 438.973L419.861 431.664C420.314 430.318 420.881 429.013 421.557 427.764C422.791 425.416 421.15 417.052 421.15 417.052C421.15 417.052 415.812 405.376 416.71 397.804C417.609 390.231 405.412 364.764 405.412 364.764C405.382 362.265 405.639 359.77 406.178 357.33C406.273 356.816 406.301 356.293 406.262 355.772C406.262 355.706 406.262 355.652 406.262 355.58C406.262 355.58 406.262 355.622 406.262 355.64C405.909 350.686 401.625 341.532 401.625 341.532L401.47 323.781C401.47 323.781 403.572 313.225 398.941 299.35C397.33 294.51 396.264 290.628 395.569 287.62C395.491 287.285 395.413 286.955 395.347 286.644C403.734 285.032 410.09 283.72 410.09 283.72C410.09 283.72 404.429 263.501 400.996 260.056C397.564 256.612 394.496 245.493 394.496 245.493C394.496 245.493 392.226 231.145 394.832 226.825C397.438 222.506 397.558 215.227 397.558 215.227C397.558 215.227 403.704 210.386 404.417 208.32C405.13 206.253 406.268 201.604 406.178 199.178C406.089 196.751 405.208 194.618 405.424 193.33C405.639 192.042 403.345 187.28 404.309 184.943C404.554 184.226 404.667 183.472 404.645 182.715C404.645 182.715 404.645 182.667 404.645 182.649C404.645 182.631 404.645 182.649 404.645 182.619C404.576 180.611 404.313 178.615 403.86 176.658C401.975 175.182 399.798 174.122 397.474 173.549L397.312 173.01L396.893 171.566C396.677 171.434 396.467 171.32 396.258 171.218L396.222 170.697L396.084 168.63L396.893 163.957C398.522 155.78 387.673 154.971 387.673 154.971C386.971 153.753 385.842 152.839 384.504 152.407C382.299 151.724 384.611 164.604 385.66 165.389C386.445 165.988 388.967 169.954 390.183 171.907L390.375 172.225C390.206 172.394 390.047 172.574 389.901 172.764L390.423 175.562L390.5 175.987C389.822 176.902 389.279 177.911 388.889 178.982C388.889 178.982 390.95 181.079 390.65 183.517C390.351 185.956 391.465 188.939 391.519 189.101C391.399 188.969 389.949 187.519 388.577 187.939C387.205 188.358 383.365 189.67 383.365 189.67C383.365 189.67 380.484 190.269 380.771 190.922C381.059 191.575 378.926 194.445 378.926 194.445L370.85 187.358C370.767 187.142 370.677 186.926 370.599 186.699C370.234 185.657 369.966 184.584 369.796 183.494C370.637 183.255 371.46 182.957 372.258 182.601C373.066 182.29 373.788 181.788 374.361 181.139C375.11 180.175 375.212 178.905 375.487 177.73C376.015 175.442 377.285 173.369 378.129 171.176C379.582 167.493 379.964 163.475 379.232 159.584C379.061 158.381 378.607 157.235 377.908 156.241C376.566 154.54 374.235 153.917 372.516 152.587C370.796 151.257 369.616 149.166 367.621 148.189C365.824 147.315 363.667 147.507 361.69 147.914C357.804 148.696 354.098 150.197 350.763 152.341C349.655 153.054 348.439 153.881 347.121 153.695C345.994 153.533 345.138 152.671 344.383 151.844C344.383 151.808 344.383 151.772 344.413 151.736L344.323 151.634C343.569 153.498 343.234 155.504 343.34 157.511C343.34 157.823 343.364 158.134 343.412 158.446C343.412 158.554 343.412 158.661 343.442 158.769C343.448 158.859 343.448 158.949 343.442 159.039C343.446 159.178 343.432 159.317 343.4 159.452C343.251 159.859 343.016 160.229 342.711 160.537C342.487 160.814 342.286 161.111 342.112 161.423C342.112 161.315 342.172 161.208 342.208 161.106C341.738 161.849 341.49 162.712 341.495 163.592C341.477 164.232 341.712 164.854 342.148 165.323C342.553 165.69 342.993 166.017 343.46 166.3C343.338 167.163 343.294 168.035 343.329 168.906C343.438 171.501 344.217 174.023 345.59 176.228C346.963 178.432 348.884 180.244 351.165 181.487L351.452 182.146C352.548 184.728 353.417 187.753 353.195 190.587C353.195 190.796 353.153 191 353.124 191.186C353.028 191.294 352.938 191.407 352.854 191.521C352.854 191.521 339.992 192.12 336.858 189.514C333.725 186.908 329.472 196.506 329.472 196.506C329.472 196.506 324.895 197.578 323.942 196.721C322.99 195.865 317.61 196.835 317.61 196.835C315.324 194.957 312.409 194.019 309.456 194.211C307.605 192.911 305.578 191.882 303.435 191.156L303.292 191.108C302.351 190.805 301.354 190.717 300.374 190.85C300.374 190.85 293.85 185.866 291.897 183.128C289.944 180.39 280.754 170.32 280.712 170.278L280.67 169.768L280.515 168.259C280.255 168.308 279.993 168.34 279.73 168.355C279.678 168.207 279.612 168.033 279.532 167.833C278.969 166.383 278.29 164.981 277.501 163.64C277.501 163.64 277.429 161.723 277.968 161.244C278.508 160.764 277.447 153.755 277.447 153.755C277.447 153.755 271.235 140.647 266.508 150.795C266.508 150.795 257.102 157.607 265.496 164.79C265.496 164.79 268.79 166.228 269.294 167.45C269.623 168.247 270.809 170.445 271.606 171.919L271.96 172.578L271.87 172.656L272.037 173.902L272.103 174.387C270.612 175.316 269.611 176.215 269.887 176.85C270.379 177.938 270.733 179.083 270.941 180.258C270.941 180.258 282.683 193.864 284.367 199.801C284.367 199.801 315.1 216.503 325.032 217.402L323.667 226.388C323.667 226.388 323.343 231.78 323.547 233.673C323.75 235.566 322.768 244.307 322.768 244.307C322.768 244.307 321.57 257.133 320.168 258.972C318.766 260.811 319.341 268.456 319.341 268.456C319.136 272.134 318.615 275.788 317.784 279.377C316.519 284.277 317.784 290.232 317.784 290.232C317.784 290.232 313.219 301.908 324.907 293.665C324.907 293.665 330.784 293.066 337.553 292.581C337.553 292.802 337.553 293.024 337.553 293.258C337.553 294.132 337.589 295.055 337.619 296.073C337.781 302.663 338.093 311.715 338.65 318.557C339.644 330.652 344.257 354.502 344.257 354.502L344.718 366.55C344.527 367.691 344.456 368.85 344.509 370.006C344.587 374.256 345.873 378.395 348.217 381.94L349.451 389.944C349.451 389.944 351.847 395.15 351.979 398.331C351.982 398.59 351.962 398.848 351.919 399.104C351.853 399.512 351.833 399.926 351.859 400.338C351.859 403.992 354.412 412.637 354.412 412.637C354.412 412.637 354.885 421.432 356.209 421.893C357.353 422.288 354.897 427.021 354.166 428.387C354.166 428.303 354.124 428.219 354.106 428.135L353.956 428.405C353.709 429.125 353.598 429.885 353.627 430.646C353.576 431.25 353.698 431.856 353.978 432.393C354.258 432.931 354.684 433.378 355.208 433.683C357.772 435.121 359.168 436.343 357.06 436.936C356.283 437.096 355.515 437.296 354.759 437.535L354.639 437.247C354.365 437.382 354.143 437.602 354.006 437.875C353.868 438.147 353.824 438.457 353.878 438.757C353.842 439.398 354.094 440.333 354.777 441.711C357.065 446.348 358.599 448.079 358.599 448.079L359.606 447.923C359.47 448.316 359.287 448.69 359.06 449.037C358.699 449.605 358.206 450.078 357.623 450.415C357.079 450.769 356.466 451.004 355.825 451.104C355.111 451.153 354.414 451.353 353.782 451.691C353.15 452.029 352.597 452.496 352.159 453.063C350.913 454.813 350.176 457.161 352.854 459.096L362.403 461.984C362.403 461.984 378.692 463.469 377.692 459.863C376.691 456.256 376.05 453.093 376.05 453.093C376.029 450.869 375.493 448.679 374.487 446.695C374.311 446.371 374.111 446.06 373.888 445.766L374.457 445.677C374.457 445.677 375.338 437.595 376.853 436.007C377.201 435.636 377.273 435.366 377.183 435.157C377.326 434.713 376.907 434.474 376.368 434.348C376.332 434.456 376.296 434.558 376.266 434.671C375.758 434.583 375.242 434.547 374.726 434.564C374.726 434.564 374.038 430.37 375.691 428.776C375.823 428.597 375.917 428.392 375.965 428.174C376.014 427.956 376.016 427.731 375.973 427.512C375.965 426.935 375.885 426.362 375.733 425.805C375.733 425.805 375.697 425.871 375.673 425.907C374.661 422.121 371.509 416.16 371.509 416.16C371.509 416.16 371.234 412.338 372.228 410.768C373.223 409.198 371.294 389.98 371.294 389.98C371.294 389.98 371.33 380.652 369.976 376.363C368.622 372.073 371.036 366.867 371.036 366.867C371.036 366.867 371.036 366.765 370.994 366.592C371.007 366.571 371.017 366.549 371.024 366.526C371.024 366.526 370.946 365.927 370.814 365.064C370.814 365.064 370.814 365.124 370.814 365.154C370.455 362.697 369.778 358.252 369.329 356.203C368.688 353.292 368.808 339.231 368.808 339.231L370.952 333.145L375.565 343.329L380.574 356.934C380.574 356.934 382.91 359.756 383.072 362.703C383.072 362.847 383.072 362.991 383.072 363.135C383.072 363.452 383.072 363.734 383.072 364.057C383.061 365.801 383.607 367.503 384.629 368.916C384.629 368.916 386.067 375.374 387.972 376.962C389.877 378.549 390.009 381.754 390.009 381.754C390.009 381.754 392.609 391.106 393.729 392.724C394.67 394.089 394.868 397.93 394.928 399.104C394.928 399.319 394.928 399.445 394.928 399.445C394.928 399.445 395.371 402.806 395.467 405.646C395.467 405.993 395.467 406.335 395.467 406.652C395.467 406.652 395.467 406.604 395.467 406.58C395.495 407.354 395.432 408.128 395.281 408.887C395.281 408.923 395.281 408.971 395.245 409.019C395.245 408.857 395.245 408.695 395.245 408.539C394.854 410.482 394.703 412.466 394.796 414.446C394.868 417.843 395.539 421.839 397.683 424.122C401.398 428.07 403.62 427.47 403.62 427.47C403.62 427.47 402.105 432.641 400.026 433.743C399.948 433.784 399.876 433.834 399.81 433.893C399.81 433.797 399.762 433.695 399.744 433.599C399.525 433.864 399.363 434.172 399.269 434.503C399.175 434.834 399.151 435.181 399.199 435.522C399.133 437.775 400.691 441.363 402.099 442.987C402.609 443.452 403.226 443.786 403.896 443.957C403.793 444.036 403.685 444.108 403.572 444.173C403.343 444.312 403.105 444.436 402.859 444.544C402.524 444.709 402.164 444.818 401.793 444.868C401.079 444.916 400.383 445.116 399.752 445.453C399.121 445.791 398.569 446.259 398.133 446.827C396.887 448.57 396.144 450.919 398.822 452.854L408.377 455.741C408.377 455.741 424.666 457.197 423.666 453.59Z" fill="url(#paint1_linear)"/>
<path d="M361.985 462.002L352.741 459.126C350.147 457.185 350.854 454.836 352.064 453.093C352.478 452.531 353.009 452.065 353.62 451.727C354.231 451.389 354.908 451.187 355.604 451.134C356.22 451.035 356.807 450.802 357.324 450.451C357.894 450.112 358.373 449.639 358.72 449.073C359.343 447.991 359.656 446.758 359.624 445.509C359.624 445.509 369.527 442.19 372.379 445.017C372.888 445.529 373.32 446.112 373.661 446.749C374.64 448.737 375.162 450.919 375.188 453.135C375.188 453.135 375.817 456.298 376.788 459.905C377.758 463.511 361.985 462.002 361.985 462.002Z" fill="#2D293D"/>
<path d="M406.479 455.789L397.229 452.889C394.635 450.948 395.348 448.6 396.552 446.857C396.965 446.294 397.496 445.828 398.107 445.491C398.719 445.154 399.396 444.953 400.092 444.904C400.451 444.854 400.8 444.745 401.123 444.58C401.363 444.475 401.595 444.352 401.818 444.215C404.316 442.711 404.112 439.272 404.112 439.272C404.112 439.272 414.015 435.953 416.873 438.781C417.254 439.164 417.592 439.588 417.879 440.045C419.712 442.951 419.676 446.917 419.676 446.917C419.676 446.917 420.311 450.086 421.276 453.686C422.24 457.287 406.479 455.789 406.479 455.789Z" fill="#2D293D"/>
<path opacity="0.1" d="M372.379 444.994C372.889 445.505 373.321 446.088 373.661 446.725L358.72 449.043C359.344 447.961 359.657 446.728 359.624 445.479C359.624 445.479 369.527 442.166 372.379 444.994Z" fill="black"/>
<path opacity="0.1" d="M417.861 440.045L417.969 442.855C415.788 446.791 404.459 446.383 401.104 444.58C401.344 444.475 401.577 444.352 401.799 444.215C404.298 442.711 404.094 439.272 404.094 439.272C404.094 439.272 413.997 435.953 416.854 438.781C417.236 439.164 417.573 439.588 417.861 440.045Z" fill="black"/>
<path d="M419.179 427.866C418.525 429.115 417.978 430.418 417.544 431.76L417.933 441.836C415.537 446.144 402.219 445.251 400.344 443.034C398.469 440.818 396.33 434.887 398.331 433.785C400.332 432.682 401.794 427.524 401.794 427.524C401.794 427.524 399.643 428.123 396.043 424.169C392.442 420.215 393.113 411.121 393.646 408.929C394.18 406.736 393.275 399.487 393.275 399.487C393.275 399.487 393.209 394.383 392.125 392.765C391.04 391.148 388.53 381.79 388.53 381.79C388.53 381.79 388.41 378.597 386.559 376.997C384.708 375.398 383.312 368.946 383.312 368.946C382.205 367.36 381.68 365.44 381.826 363.512C382.084 360.307 379.4 356.958 379.4 356.958L374.536 343.353L370.054 333.168L367.988 339.255C367.988 339.255 367.892 353.31 368.515 356.221C369.138 359.133 370.204 366.891 370.204 366.891C370.204 366.891 367.844 372.091 369.162 376.38C370.48 380.67 370.45 390.003 370.45 390.003C370.45 390.003 372.343 409.222 371.378 410.792C370.414 412.361 370.695 416.183 370.695 416.183C370.695 416.183 376.357 427.207 374.757 428.8C373.158 430.394 373.829 434.581 373.829 434.581C373.829 434.581 377.423 434.444 375.925 436.037C374.428 437.631 373.619 445.706 373.619 445.706L358.264 448.103C358.264 448.103 356.779 446.371 354.556 441.728C352.333 437.085 354.778 437.505 356.809 436.936C358.84 436.367 357.498 435.138 355.011 433.683C352.525 432.227 353.813 428.746 353.813 428.746C353.813 428.746 357.27 422.354 355.976 421.893C354.682 421.431 354.215 412.637 354.215 412.637C354.215 412.637 351.261 402.273 351.818 399.457C352.375 396.641 349.422 389.968 349.422 389.968L348.224 381.964C343.275 374.194 344.773 366.867 344.773 366.867L344.294 354.49C344.294 354.49 339.801 330.646 338.824 318.545C338.225 310.793 337.884 300.201 337.74 293.587C337.656 289.873 337.626 287.416 337.626 287.416L392.514 279.556C392.514 279.556 392.556 282.102 393.826 287.704C394.503 290.699 395.539 294.593 397.109 299.44C401.602 313.315 399.583 323.871 399.583 323.871L399.757 341.621C399.757 341.621 405.059 353.298 404.196 357.419C403.687 359.862 403.448 362.353 403.483 364.848C403.483 364.848 415.321 390.327 414.465 397.899C413.608 405.472 418.778 417.148 418.778 417.148C418.778 417.148 420.365 425.517 419.179 427.866Z" fill="#575988"/>
<path opacity="0.05" d="M385.115 362.619L401.806 359.738C401.806 359.738 392.7 369.802 385.115 362.619Z" fill="black"/>
<path opacity="0.1" d="M398.75 343.443C398.75 343.443 399.553 349.35 396 351.722C396 351.722 402.47 350.452 398.75 343.443Z" fill="black"/>
<path opacity="0.1" d="M396.995 324.602C396.995 324.602 383.414 336.685 378.28 335.924C373.146 335.163 396.995 324.602 396.995 324.602Z" fill="black"/>
<path opacity="0.1" d="M364.543 368.838C364.543 368.838 353.975 371.66 353.819 375.955C353.663 380.25 364.543 368.838 364.543 368.838Z" fill="black"/>
<path opacity="0.05" d="M368.922 421.941C368.922 421.941 353.981 425.326 358.324 427.075C362.667 428.824 369.749 430.07 369.749 430.07C369.749 430.07 374.601 430.154 368.922 421.941Z" fill="black"/>
<g opacity="0.05">
<path opacity="0.05" d="M355.401 430.226C355.016 430.002 354.685 429.695 354.433 429.327C354.181 428.959 354.014 428.54 353.945 428.099L353.802 428.375C353.802 428.375 352.526 431.874 355 433.311C355.287 433.473 355.551 433.635 355.809 433.797C356.246 433.695 356.731 433.617 357.186 433.479C359.235 432.892 357.887 431.664 355.401 430.226Z" fill="black"/>
<path opacity="0.05" d="M374.728 428.465C375.129 428.063 375.075 427.087 374.776 425.835C374.135 426.853 374.027 428.393 374.063 429.561C374.201 429.151 374.428 428.777 374.728 428.465Z" fill="black"/>
<path opacity="0.05" d="M369.995 365.07C369.498 366.599 369.216 368.19 369.156 369.797C369.402 368.677 369.751 367.582 370.199 366.526C370.199 366.526 370.121 365.98 369.995 365.07Z" fill="black"/>
<path opacity="0.05" d="M404.196 357.066C404.281 356.604 404.311 356.133 404.286 355.664C404.131 356.629 404.035 357.515 403.969 358.294C404.035 357.881 404.113 357.485 404.196 357.066Z" fill="black"/>
<path opacity="0.05" d="M371.378 410.45C371.57 410.133 371.648 409.072 371.648 407.605C371.222 408.754 371.019 409.974 371.049 411.199C371.128 410.937 371.239 410.686 371.378 410.45Z" fill="black"/>
<path opacity="0.05" d="M375.464 434.384C374.523 437.295 374.008 442.286 374.008 442.286L358.653 444.682C358.653 444.682 357.168 442.951 354.957 438.296C354.765 437.888 354.604 437.523 354.478 437.187C353.573 437.649 353.244 438.619 354.568 441.381C356.79 446.024 358.27 447.755 358.27 447.755L373.624 445.359C373.624 445.359 374.463 437.277 375.937 435.684C376.65 434.917 376.153 434.564 375.464 434.384Z" fill="black"/>
<path opacity="0.05" d="M354.203 412.26C354.203 412.26 354.67 421.06 355.964 421.521C356.563 420.036 356.928 418.64 356.347 418.436C355.053 417.975 354.586 409.174 354.586 409.174C354.586 409.174 351.633 398.816 352.19 395.994C352.747 393.173 349.793 386.505 349.793 386.505L348.595 378.507C343.701 370.773 345.204 363.434 345.204 363.434L344.725 351.063C344.725 351.063 340.232 327.22 339.256 315.118C338.656 307.372 338.315 296.774 338.171 290.16C338.171 288.962 338.123 287.908 338.105 287.015L337.668 287.075C337.668 287.075 337.668 289.531 337.776 293.246C337.926 299.836 338.237 310.451 338.866 318.197C339.843 330.299 344.336 354.142 344.336 354.142L344.773 366.508C344.773 366.508 343.269 373.846 348.164 381.581L349.362 389.584C349.362 389.584 352.304 396.24 351.758 399.068C351.213 401.895 354.203 412.26 354.203 412.26Z" fill="black"/>
<path opacity="0.05" d="M400.733 439.596C399.407 437.834 398.492 435.797 398.055 433.635C396.533 435.115 398.558 440.56 400.338 442.681C402.213 444.91 415.53 445.802 417.921 441.483L417.825 439.051C414.512 442.615 402.5 441.705 400.733 439.596Z" fill="black"/>
<path opacity="0.05" d="M419.562 424.439C418.908 425.689 418.361 426.991 417.927 428.333L417.993 430.13C418.256 429.465 418.64 428.579 419.191 427.524C419.556 426.506 419.705 425.422 419.628 424.343C419.592 424.379 419.58 424.409 419.562 424.439Z" fill="black"/>
<path opacity="0.05" d="M401.039 427.165C401.485 426.164 401.865 425.136 402.177 424.085C402.177 424.085 400.026 424.685 396.426 420.731C393.808 417.855 393.431 412.254 393.664 408.575C393.107 410.768 392.436 419.862 396.061 423.81C398.391 426.392 400.122 427.033 401.039 427.165Z" fill="black"/>
<path opacity="0.05" d="M393.299 399.134C393.617 401.638 393.799 404.158 393.844 406.682C393.891 406.279 393.963 405.879 394.06 405.484C394.617 403.291 393.688 396.048 393.688 396.048C393.688 396.048 393.622 390.938 392.538 389.321C391.454 387.703 388.944 378.345 388.944 378.345C388.944 378.345 388.824 375.158 386.973 373.553C385.121 371.947 383.714 365.519 383.714 365.519C382.603 363.935 382.078 362.014 382.228 360.085C382.485 356.88 379.831 353.537 379.831 353.537L374.925 339.908L370.444 329.724L368.377 335.835C368.377 335.835 368.377 336.589 368.377 337.776L370.054 332.833L374.536 343.018L379.406 356.629C379.406 356.629 382.09 359.978 381.802 363.177C381.655 365.107 382.18 367.029 383.288 368.616C383.288 368.616 384.69 375.074 386.535 376.668C388.38 378.262 388.512 381.461 388.512 381.461C388.512 381.461 391.04 390.818 392.107 392.436C393.173 394.053 393.299 399.134 393.299 399.134Z" fill="black"/>
</g>
<path d="M394.976 164.035L394.197 168.732L394.335 170.799L394.431 172.326L389.135 173.081L388.494 172.003C387.295 170.05 384.869 166.078 384.108 165.479C383.09 164.694 380.837 151.814 382.976 152.497C384.28 152.946 385.373 153.861 386.043 155.067C386.043 155.067 396.545 155.864 394.976 164.035Z" fill="#FFCDD3"/>
<path opacity="0.1" d="M394.431 172.326L389.135 173.081L388.494 172.003C389.179 171.159 390.136 170.578 391.201 170.36C392.265 170.141 393.373 170.299 394.335 170.805L394.431 172.326Z" fill="black"/>
<path d="M395.875 174.801L388.92 176.694L388.728 175.657L388.225 172.86C388.225 172.86 390.861 169.049 394.982 171.661L395.39 173.081L395.875 174.801Z" fill="#DCE6F2"/>
<path d="M281.786 168.9L274.453 173.213C274.453 173.213 274.141 172.614 273.716 171.823C272.949 170.355 271.799 168.145 271.475 167.354C270.984 166.156 267.797 164.682 267.797 164.682C259.667 157.493 268.761 150.694 268.761 150.694C273.321 140.551 279.353 153.689 279.353 153.689C279.353 153.689 280.384 160.68 279.863 161.177C279.341 161.675 279.413 163.574 279.413 163.574C280.185 164.915 280.844 166.318 281.384 167.767C281.648 168.468 281.786 168.9 281.786 168.9Z" fill="#FFCDD3"/>
<path opacity="0.1" d="M281.785 168.9L274.453 173.213C274.453 173.213 274.141 172.614 273.716 171.823C274.74 170.901 278.371 167.714 279.611 167.803C280.209 167.86 280.81 167.86 281.408 167.803C281.648 168.468 281.785 168.9 281.785 168.9Z" fill="black"/>
<path d="M282.635 171.14L274.38 175.609L274.14 173.812L273.973 172.566C273.973 172.566 278.693 168.199 280.137 168.301C280.871 168.376 281.611 168.346 282.336 168.211L282.492 169.726L282.635 171.14Z" fill="#DCE6F2"/>
<path d="M375.757 195.757C375.757 195.757 339.213 201.31 345.983 198.818C350.698 197.081 352.483 193.971 352.747 190.587C352.962 187.753 352.148 184.728 351.057 182.146C350.1 179.863 348.914 177.683 347.517 175.64C347.517 175.64 374.985 159.123 369.934 173.363C369.148 175.518 368.697 177.781 368.598 180.073C368.512 182.348 368.843 184.62 369.575 186.776C370.767 190.283 372.907 193.392 375.757 195.757Z" fill="#FFCDD3"/>
<path opacity="0.1" d="M369.934 173.363C369.147 175.518 368.697 177.781 368.598 180.073C366.04 182.397 363.134 182.361 359.414 182.505C356.55 182.613 353.423 183.427 351.075 182.139C350.118 179.856 348.932 177.677 347.534 175.633C347.534 175.633 374.984 159.123 369.934 173.363Z" fill="black"/>
<path d="M358.348 183.511C366.739 183.511 373.541 176.709 373.541 168.318C373.541 159.928 366.739 153.126 358.348 153.126C349.957 153.126 343.155 159.928 343.155 168.318C343.155 176.709 349.957 183.511 358.348 183.511Z" fill="#FFCDD3"/>
<path opacity="0.1" d="M375.757 195.757C375.757 195.757 339.213 201.31 345.983 198.818C350.698 197.081 352.483 193.971 352.747 190.587C354.502 188.538 358.138 186.992 360.445 186.117C362.571 185.313 364.893 185.185 367.095 185.752C367.961 185.973 368.791 186.321 369.557 186.782C370.755 190.289 372.901 193.396 375.757 195.757Z" fill="black"/>
<path opacity="0.1" d="M395.875 174.801L388.919 176.694L388.728 175.657C389.439 174.596 390.46 173.78 391.652 173.32C392.844 172.86 394.149 172.779 395.389 173.087L395.875 174.801Z" fill="black"/>
<path opacity="0.1" d="M282.636 171.14L274.38 175.609L274.141 173.812C277.082 171.919 282.061 169.9 282.492 169.726L282.636 171.14Z" fill="black"/>
<path opacity="0.1" d="M393.837 287.698C379.711 290.49 359.588 294.192 356.341 293.335C353.645 292.629 345.144 293.042 337.769 293.581C337.685 289.867 337.655 287.411 337.655 287.411L392.543 279.551C392.543 279.551 392.567 282.097 393.837 287.698Z" fill="black"/>
<path d="M407.892 283.816C407.892 283.816 361.385 293.653 356.299 292.317C351.213 290.981 325.488 293.629 325.488 293.629C314.177 301.854 318.586 290.19 318.586 290.19C318.586 290.19 317.334 284.235 318.551 279.335C319.351 275.744 319.852 272.093 320.048 268.419C320.048 268.419 319.497 260.775 320.833 258.936C322.169 257.097 323.331 244.276 323.331 244.276C323.331 244.276 324.272 235.548 324.074 233.643C323.876 231.738 324.176 226.358 324.176 226.358L325.488 217.372C315.903 216.461 286.104 199.723 286.104 199.723C284.469 193.78 273.086 180.168 273.086 180.168C272.886 178.994 272.542 177.85 272.062 176.76C271.217 174.747 282.54 170.224 282.54 170.224C282.54 170.224 291.49 180.354 293.383 183.092C295.276 185.83 301.602 190.82 301.602 190.82C302.551 190.693 303.516 190.783 304.424 191.084C304.475 191.093 304.525 191.107 304.574 191.126C306.658 191.86 308.625 192.891 310.415 194.187C314.992 193.756 318.305 196.823 318.305 196.823C318.305 196.823 323.505 195.858 324.434 196.715C325.362 197.572 329.789 196.511 329.789 196.511C329.789 196.511 333.893 186.896 336.93 189.526C339.968 192.156 352.417 191.551 352.417 191.551C353.992 189.28 357.964 187.543 360.456 186.633C362.582 185.828 364.905 185.7 367.106 186.267C368.061 186.51 368.967 186.916 369.784 187.465L377.62 194.57C377.62 194.57 379.681 191.683 379.417 191.054C379.154 190.425 381.928 189.808 381.928 189.808C381.928 189.808 385.582 188.514 386.972 188.082C388.362 187.651 389.704 189.113 389.818 189.245C389.77 189.083 388.691 186.033 388.973 183.661C389.254 181.289 387.265 179.126 387.265 179.126C391.309 167.983 401.739 176.784 401.739 176.784C401.739 176.784 403.117 182.733 402.183 185.069C401.248 187.405 403.477 192.174 403.273 193.456C403.069 194.738 403.914 196.883 404.01 199.303C404.106 201.723 402.991 206.312 402.285 208.403C401.578 210.494 395.695 215.299 395.695 215.299C395.695 215.299 395.593 222.584 393.077 226.891C390.56 231.198 392.771 245.558 392.771 245.558C392.771 245.558 395.766 256.683 399.079 260.134C402.392 263.585 407.892 283.816 407.892 283.816Z" fill="#656691"/>
<path opacity="0.1" d="M336.416 202.508C336.416 202.508 334.852 198.351 333.558 198.021C332.272 197.6 331.015 197.094 329.796 196.505L330.557 194.9C330.557 194.9 335.403 196.032 336.218 197.404C337.033 198.776 336.416 202.508 336.416 202.508Z" fill="black"/>
<path opacity="0.1" d="M310.422 194.181C310.212 195.469 298.907 197.051 298.907 197.051L304.425 191.06L304.569 191.108C306.658 191.845 308.629 192.88 310.422 194.181Z" fill="black"/>
<path d="M276.896 178.958C277.459 178.958 277.915 178.502 277.915 177.94C277.915 177.377 277.459 176.921 276.896 176.921C276.334 176.921 275.878 177.377 275.878 177.94C275.878 178.502 276.334 178.958 276.896 178.958Z" fill="#575988"/>
<path d="M278.28 180.947C278.843 180.947 279.299 180.491 279.299 179.929C279.299 179.366 278.843 178.91 278.28 178.91C277.718 178.91 277.262 179.366 277.262 179.929C277.262 180.491 277.718 180.947 278.28 180.947Z" fill="#575988"/>
<path d="M279.629 182.781C280.191 182.781 280.647 182.325 280.647 181.762C280.647 181.2 280.191 180.744 279.629 180.744C279.066 180.744 278.61 181.2 278.61 181.762C278.61 182.325 279.066 182.781 279.629 182.781Z" fill="#575988"/>
<path d="M281.048 184.769C281.61 184.769 282.066 184.313 282.066 183.751C282.066 183.188 281.61 182.732 281.048 182.732C280.485 182.732 280.029 183.188 280.029 183.751C280.029 184.313 280.485 184.769 281.048 184.769Z" fill="#575988"/>
<path d="M401.284 179.845C401.744 179.845 402.117 179.472 402.117 179.012C402.117 178.553 401.744 178.18 401.284 178.18C400.824 178.18 400.451 178.553 400.451 179.012C400.451 179.472 400.824 179.845 401.284 179.845Z" fill="#575988"/>
<path d="M401.482 181.72C401.942 181.72 402.315 181.347 402.315 180.887C402.315 180.428 401.942 180.055 401.482 180.055C401.022 180.055 400.649 180.428 400.649 180.887C400.649 181.347 401.022 181.72 401.482 181.72Z" fill="#575988"/>
<path d="M401.668 183.595C402.128 183.595 402.5 183.222 402.5 182.762C402.5 182.303 402.128 181.93 401.668 181.93C401.208 181.93 400.835 182.303 400.835 182.762C400.835 183.222 401.208 183.595 401.668 183.595Z" fill="#575988"/>
<path opacity="0.1" d="M337.811 237.075C337.685 236.926 367.837 272.134 389.332 250.291C389.356 250.291 354.268 256.432 337.811 237.075Z" fill="black"/>
<path opacity="0.1" d="M322.008 256.588C322.008 256.588 339.231 256.396 341.22 261.273L341.418 266.425C340.94 266.717 340.395 266.882 339.835 266.904C339.275 266.926 338.719 266.804 338.219 266.55C336.422 265.676 325.842 260.793 322.271 263.477L322.008 256.588Z" fill="black"/>
<path d="M322.337 256.576C322.337 256.576 338.812 256.39 340.711 261.045L340.903 265.951C340.444 266.23 339.923 266.387 339.387 266.408C338.852 266.428 338.32 266.313 337.841 266.071C336.146 265.244 326.003 260.584 322.589 263.148L322.337 256.576Z" fill="#656691"/>
<path opacity="0.1" d="M329.97 218.893C331.887 222.893 334.276 226.648 337.087 230.078C340.148 233.878 343.808 237.152 347.924 239.771C347.924 239.771 330.353 221.218 329.97 218.893Z" fill="black"/>
<path opacity="0.1" d="M323.571 199.088C323.571 199.088 326.92 211.369 334.481 215.293L323.571 199.088Z" fill="black"/>
<path opacity="0.1" d="M319.221 200.507C319.138 200.28 317.047 210.404 329.346 215.485C329.346 215.491 324.146 213.945 319.221 200.507Z" fill="black"/>
<path opacity="0.1" d="M394.036 189.304C393.844 189.304 400.152 192.995 401.89 194.75C401.89 194.75 397.66 188.939 394.036 189.304Z" fill="black"/>
<path d="M354.778 182.241C355.023 183.014 355.323 183.859 356.042 184.242C356.495 184.445 356.99 184.535 357.486 184.506C362.123 184.62 366.945 184.638 371.157 182.709C371.946 182.394 372.646 181.89 373.194 181.241C373.919 180.282 374.014 179.012 374.278 177.838C374.787 175.55 375.991 173.477 376.83 171.284C378.242 167.576 378.606 163.551 377.885 159.65C377.721 158.451 377.28 157.306 376.596 156.307C375.302 154.6 373.038 153.977 371.36 152.647C369.683 151.317 368.557 149.22 366.622 148.243C364.878 147.363 362.794 147.554 360.883 147.956C357.118 148.748 353.541 150.255 350.345 152.395C349.272 153.108 348.098 153.935 346.822 153.743C345.702 153.581 344.863 152.677 344.114 151.832C343.292 153.948 342.99 156.231 343.233 158.488C343.29 158.819 343.29 159.157 343.233 159.488C343.09 159.89 342.864 160.258 342.569 160.567C341.478 161.938 340.843 164.059 342.023 165.359C342.539 165.922 343.305 166.21 343.821 166.785C344.719 167.821 344.492 169.367 344.522 170.733C344.49 171.208 344.628 171.679 344.911 172.063C345.167 172.282 345.475 172.432 345.805 172.499C346.136 172.565 346.478 172.545 346.798 172.44C347.436 172.219 348.113 172.127 348.787 172.171C349.514 172.375 350.149 172.824 350.584 173.441C352.807 176.047 353.759 179 354.778 182.241Z" fill="#2D293D"/>
<g opacity="0.1">
<path opacity="0.1" d="M373.655 180.037C373.109 180.684 372.411 181.186 371.624 181.499C367.43 183.446 362.59 183.428 357.947 183.296C357.452 183.321 356.957 183.231 356.503 183.032C355.79 182.649 355.485 181.798 355.239 181.025C354.22 177.79 353.268 174.831 351.045 172.195C350.607 171.582 349.973 171.136 349.248 170.931C348.574 170.888 347.899 170.977 347.259 171.194C346.938 171.299 346.596 171.32 346.264 171.255C345.933 171.19 345.624 171.041 345.366 170.823C345.086 170.436 344.949 169.964 344.977 169.487C344.947 168.121 345.174 166.575 344.282 165.545C343.778 164.946 343.012 164.682 342.484 164.113C342.15 163.691 341.936 163.187 341.865 162.653C341.793 162.12 341.866 161.577 342.077 161.082C341.316 162.4 341.029 164.077 342.017 165.156C342.526 165.719 343.299 166.006 343.814 166.587C344.713 167.618 344.485 169.163 344.515 170.529C344.484 171.005 344.622 171.476 344.905 171.859C345.161 172.079 345.468 172.229 345.799 172.295C346.129 172.361 346.471 172.341 346.792 172.237C347.431 172.018 348.107 171.927 348.781 171.967C349.508 172.172 350.143 172.62 350.578 173.237C352.825 175.873 353.771 178.827 354.772 182.068C355.017 182.841 355.317 183.685 356.036 184.075C356.49 184.274 356.984 184.365 357.48 184.338C362.116 184.446 366.939 184.464 371.151 182.541C371.938 182.227 372.638 181.725 373.188 181.079C373.455 180.696 373.658 180.271 373.787 179.821C373.751 179.893 373.709 179.953 373.655 180.037Z" fill="black"/>
<path opacity="0.1" d="M343.269 159.051C343.467 158.822 343.614 158.555 343.701 158.266C343.761 157.937 343.761 157.6 343.701 157.272C343.499 155.418 343.668 153.542 344.198 151.754L344.108 151.652C343.286 153.768 342.984 156.051 343.227 158.308C343.265 158.554 343.279 158.802 343.269 159.051Z" fill="black"/>
</g>
<path opacity="0.1" d="M352.423 191.545C352.423 191.545 371.48 193.342 373.079 190.413L352.423 191.545Z" fill="black"/>
<path opacity="0.1" d="M388.985 182.277C388.985 182.277 399.523 181.888 401.992 185.746L388.985 182.277Z" fill="black"/>
<path d="M619.399 382.443C619.399 382.443 622.951 387.086 617.757 394.101C612.563 401.117 608.286 407.035 610.017 411.409C610.017 411.409 617.853 398.385 624.227 398.199C630.602 398.013 626.414 390.267 619.399 382.443Z" fill="#7B003A"/>
<path opacity="0.1" d="M619.399 382.443C619.711 382.89 619.955 383.38 620.123 383.899C626.348 391.208 629.661 398.031 623.682 398.199C618.111 398.361 611.425 408.324 609.825 410.834C609.878 411.037 609.942 411.237 610.017 411.433C610.017 411.433 617.853 398.409 624.227 398.223C630.601 398.037 626.414 390.267 619.399 382.443Z" fill="black"/>
<path d="M626.006 388.356C626.006 389.992 625.821 391.316 625.593 391.316C625.365 391.316 625.186 389.992 625.186 388.356C625.186 386.721 625.413 387.493 625.641 387.493C625.869 387.493 626.006 386.721 626.006 388.356Z" fill="#FFD037"/>
<path d="M628.271 390.309C626.833 391.088 625.581 391.561 625.473 391.363C625.365 391.166 626.444 390.369 627.87 389.566C629.295 388.763 628.738 389.351 628.852 389.566C628.966 389.782 629.703 389.524 628.271 390.309Z" fill="#FFD037"/>
<path d="M600.635 382.443C600.635 382.443 597.083 387.086 602.271 394.101C607.459 401.117 611.748 407.035 610.017 411.409C610.017 411.409 602.181 398.385 595.807 398.199C589.432 398.013 593.62 390.267 600.635 382.443Z" fill="#7B003A"/>
<path opacity="0.1" d="M600.635 382.443C600.323 382.89 600.079 383.38 599.91 383.899C593.686 391.208 590.373 398.031 596.352 398.199C601.923 398.361 608.603 408.324 610.209 410.834C610.155 411.037 610.091 411.237 610.017 411.433C610.017 411.433 602.181 398.409 595.807 398.223C589.432 398.037 593.62 390.267 600.635 382.443Z" fill="black"/>
<path d="M594.027 388.356C594.027 389.992 594.213 391.316 594.441 391.316C594.668 391.316 594.848 389.992 594.848 388.356C594.848 386.721 594.62 387.493 594.393 387.493C594.165 387.493 594.027 386.721 594.027 388.356Z" fill="#FFD037"/>
<path d="M591.763 390.309C593.201 391.088 594.453 391.561 594.561 391.363C594.669 391.166 593.591 390.369 592.165 389.566C590.739 388.763 591.29 389.351 591.182 389.566C591.074 389.782 590.326 389.524 591.763 390.309Z" fill="#FFD037"/>
<path opacity="0.1" d="M610.011 446.94C630.525 446.94 647.155 444.39 647.155 441.243C647.155 438.097 630.525 435.546 610.011 435.546C589.498 435.546 572.868 438.097 572.868 441.243C572.868 444.39 589.498 446.94 610.011 446.94Z" fill="#E7D1DC"/>
<path d="M629.134 405.143L628.954 406.592L628.709 408.641L628.607 409.498L628.355 411.547L628.247 412.403L627.996 414.446L625.156 437.751C624.899 439.829 621.502 441.453 617.404 441.453H602.631C598.527 441.453 595.136 439.829 594.884 437.751L592.033 414.446L591.787 412.403L591.685 411.547L591.428 409.498L591.326 408.641L591.074 406.592L590.9 405.143C590.757 403.944 592.596 402.974 594.914 402.974H625.144C627.439 402.974 629.284 403.962 629.134 405.143Z" fill="#65617D"/>
<path d="M628.954 406.592L628.703 408.641H591.32L591.074 406.592H628.954Z" fill="#9D9CB5"/>
<path d="M628.601 409.492L628.355 411.547H591.679L591.428 409.492H628.601Z" fill="#9D9CB5"/>
<path d="M628.242 412.397L627.996 414.446H592.033L591.781 412.397H628.242Z" fill="#9D9CB5"/>
</g>
<defs>
<linearGradient id="paint0_linear" x1="365.334" y1="403.807" x2="365.334" y2="81.3018" gradientUnits="userSpaceOnUse">
<stop stop-color="#808080" stop-opacity="0.25"/>
<stop offset="0.54" stop-color="#808080" stop-opacity="0.12"/>
<stop offset="1" stop-color="#808080" stop-opacity="0.1"/>
</linearGradient>
<linearGradient id="paint1_linear" x1="111897" y1="253111" x2="105451" y2="85336.4" gradientUnits="userSpaceOnUse">
<stop stop-color="#808080" stop-opacity="0.25"/>
<stop offset="0.54" stop-color="#808080" stop-opacity="0.12"/>
<stop offset="1" stop-color="#808080" stop-opacity="0.1"/>
</linearGradient>
<clipPath id="clip0">
<rect width="650" height="492.896" fill="white"/>
</clipPath>
</defs>
</svg>
