<svg width="25" height="24" viewBox="0 0 25 24" fill="none" xmlns="http://www.w3.org/2000/svg">
<g clip-path="url(#clip0)">
<path d="M3.0181 0.207275C4.65598 0.207275 6.03522 1.53135 6.03522 3.10371C6.03522 4.7588 4.56975 6.04153 3.0181 6.00014C1.42334 6.04153 0.000984025 4.7588 0.000984025 3.10371C-0.0421295 1.48996 1.33716 0.207275 3.0181 0.207275Z" fill="#192A3E"/>
<path d="M4.69885 23.7926H1.2507C0.776596 23.7926 0.388672 23.4202 0.388672 22.965V8.48288C0.388672 8.02774 0.733483 7.65533 1.20759 7.65533H4.69881C5.17291 7.65533 5.56083 8.02774 5.56083 8.48288V23.0064C5.56088 23.4202 5.17296 23.7926 4.69885 23.7926Z" fill="#192A3E"/>
<path d="M24.9569 12.7032C24.9569 9.6413 22.5863 7.24139 19.3967 7.24139H18.4916C16.7676 7.24139 15.0866 8.02755 14.1814 9.31028C13.8797 9.59991 13.7504 9.72408 13.7504 9.72408V8.06899C13.7504 7.90348 13.4918 7.65519 13.3193 7.65519H9.00916C8.83676 7.65519 8.57812 7.8207 8.57812 8.0276V23.4615C8.57812 23.627 8.83676 23.7925 9.00916 23.7925H13.7503C13.9227 23.7925 14.1814 23.627 14.1814 23.4615V14.5238C14.1814 12.9929 15.3882 11.7101 16.983 11.6688C17.8019 11.6688 18.5346 11.9584 19.0949 12.4963C19.6122 12.9929 19.8277 13.6963 19.8277 14.4825V23.3787C19.8277 23.5442 20.0863 23.7924 20.2587 23.7924H24.5689C24.7413 23.7924 24.9999 23.5442 24.9999 23.3787V12.7032H24.9569Z" fill="#192A3E"/>
</g>
<defs>
<clipPath id="clip0">
<rect width="25" height="24" fill="white"/>
</clipPath>
</defs>
</svg>
