<svg width="25" height="24" viewBox="0 0 25 24" fill="none" xmlns="http://www.w3.org/2000/svg">
<g clip-path="url(#clip0)">
<path d="M25 4.5585C24.0703 4.95 23.0797 5.2095 22.0469 5.3355C23.1094 4.7265 23.9203 3.7695 24.3016 2.616C23.3109 3.183 22.2172 3.5835 21.0516 3.807C20.1109 2.8455 18.7703 2.25 17.3078 2.25C14.4703 2.25 12.1859 4.461 12.1859 7.1715C12.1859 7.5615 12.2203 7.9365 12.3047 8.2935C8.04375 8.094 4.27344 6.1335 1.74062 3.147C1.29844 3.8835 1.03906 4.7265 1.03906 5.634C1.03906 7.338 1.95312 8.8485 3.31562 9.723C2.49219 9.708 1.68437 9.4785 1 9.117C1 9.132 1 9.1515 1 9.171C1 11.562 2.77656 13.548 5.10625 14.0055C4.68906 14.115 4.23438 14.1675 3.7625 14.1675C3.43438 14.1675 3.10312 14.1495 2.79219 14.0835C3.45625 16.032 5.34063 17.4645 7.58125 17.511C5.8375 18.8205 3.62344 19.6095 1.22656 19.6095C0.80625 19.6095 0.403125 19.5915 0 19.542C2.27031 20.9475 4.96094 21.75 7.8625 21.75C17.2937 21.75 22.45 14.25 22.45 7.749C22.45 7.5315 22.4422 7.3215 22.4312 7.113C23.4484 6.42 24.3031 5.5545 25 4.5585Z" fill="#192A3E"/>
</g>
<defs>
<clipPath id="clip0">
<rect width="25" height="24" fill="white"/>
</clipPath>
</defs>
</svg>
