<svg width="61" height="60" viewBox="0 0 61 60" fill="none" xmlns="http://www.w3.org/2000/svg">
<rect width="61" height="60" rx="5" fill="white" fill-opacity="0.2"/>
<g clip-path="url(#clip0)">
<path d="M45.9991 18.7923C45.7523 18.675 45.4831 18.6123 45.2099 18.6086C45.0464 18.6004 44.8831 18.6288 44.732 18.6919C44.5808 18.7549 44.4457 18.8508 44.3363 18.9727C43.1933 20.3641 42.1469 23.0687 41.304 25.2447C40.9367 26.2601 40.5165 27.2556 40.0451 28.2271C39.8531 26.3763 40.6851 19.7017 41.0051 17.1321L41.0103 17.0905C41.1305 16.3485 41.2126 15.6009 41.256 14.8505C41.2663 14.4573 41.177 14.0678 40.9965 13.7183C40.8161 13.3688 40.5502 13.0705 40.2237 12.8511C39.8466 12.6897 39.4355 12.6239 39.0268 12.6597C38.6182 12.6954 38.2247 12.8315 37.8813 13.0559C37.4224 13.2921 37.2375 14.1996 36.5699 18.3263V18.3449C36.2013 20.6118 35.354 25.8329 34.7076 26.6649C34.1316 25.3939 33.7034 18.3756 33.5191 15.3369C33.3911 13.2089 33.3136 11.9878 33.2317 11.614C33.0812 11.1797 32.8088 10.798 32.4471 10.5144C32.0854 10.2308 31.6497 10.0573 31.192 10.0147C30.8271 9.96045 30.4544 10.0226 30.1269 10.1923C29.7993 10.362 29.5336 10.6306 29.3674 10.9599C28.7421 11.5667 28.7972 13.7299 29.082 18.8633C29.2176 21.3055 29.4967 26.3513 29.0615 26.8863C28.2781 26.7443 27.1415 23.5161 25.6823 17.2863C25.541 16.43 25.3118 15.5906 24.9981 14.7814C24.7982 14.3407 24.4761 13.9666 24.07 13.7034C23.6639 13.4402 23.1908 13.299 22.7069 13.2966C22.6245 13.2967 22.5423 13.3019 22.4605 13.3119C21.9427 13.3759 20.744 13.7683 20.8407 15.9654C21.2512 18.5078 21.8 21.0258 22.4848 23.5084L22.4963 23.5519C22.84 24.871 23.1652 26.119 23.4519 27.4969C23.874 29.2102 23.9359 30.9924 23.6336 32.7308C23.591 32.9326 23.5199 33.0521 23.4205 33.0892C23.3793 33.1029 23.336 33.1096 23.2925 33.1091C22.9646 33.0643 22.6522 32.9419 22.3811 32.7519C21.9447 31.7503 19.7635 26.9747 17.5395 26.1772L17.4589 26.1471H17.3764C17.0213 26.1316 16.6673 26.1965 16.3409 26.3372C16.0145 26.4778 15.7241 26.6905 15.4916 26.9593C15.2769 27.2705 15.1273 27.6218 15.0518 27.9922C14.9762 28.3626 14.9762 28.7444 15.0519 29.1148L15.0794 29.1955C15.096 29.2307 16.6794 32.6886 16.856 34.2585C17.0071 35.6025 18.1616 37.1321 19.0909 38.3596L19.1293 38.4102C19.432 38.8115 19.6932 39.159 19.8973 39.4777C22.6135 42.7532 27.0653 45.6601 27.105 45.6857C27.5436 45.9802 27.8485 46.4357 27.9536 46.9535C27.9607 47.0888 27.9148 47.2215 27.8256 47.3235L27.7175 47.422L27.7264 47.4323H27.6829V48.2284H40.6295V47.9603L41.2932 45.7203C42.5586 41.6649 43.2817 37.4598 43.4436 33.2147C43.4647 33.0022 44.0605 30.9747 44.5405 29.3427L44.554 29.3011C45.5088 26.0422 46.698 21.9878 46.9802 20.4326C47.026 20.0885 46.954 19.7391 46.7758 19.4412C46.5977 19.1434 46.3239 18.9146 45.9991 18.7923ZM46.0899 20.2739C45.8154 21.7855 44.577 26.0063 43.6727 29.0892C42.8899 31.7567 42.5674 32.8723 42.5418 33.1718C42.3978 37.3446 41.6873 41.4784 40.4298 45.4598L39.8448 47.4335H28.7786C28.8299 47.2807 28.8556 47.1205 28.8547 46.9593C28.8064 46.5592 28.6729 46.1741 28.4631 45.83C28.2534 45.4858 27.9722 45.1907 27.6388 44.9644C27.5946 44.9356 23.1754 42.0249 20.6256 38.9561C20.4221 38.6303 20.1136 38.2188 19.8096 37.822C18.993 36.7417 17.8743 35.262 17.7527 34.1644C17.5709 32.5279 16.1111 29.2863 15.9242 28.8799C15.8446 28.41 15.9422 27.9272 16.1981 27.5251C16.3393 27.3722 16.5115 27.2514 16.7033 27.1707C16.895 27.09 17.1018 27.0513 17.3098 27.0572C19.3034 27.8892 21.5799 33.1737 21.6023 33.2275L21.6503 33.3395L21.7482 33.415C22.1976 33.7546 22.7329 33.9618 23.2938 34.0134C23.4447 34.015 23.5945 33.989 23.736 33.9366C23.941 33.854 24.1205 33.7186 24.2564 33.5443C24.3923 33.37 24.4797 33.1629 24.5098 32.9439C24.5335 32.8582 25.0564 30.7955 24.3344 27.3158C24.0464 25.9231 23.7136 24.6508 23.3636 23.303L23.3572 23.2825C22.6831 20.8453 22.1424 18.3731 21.7373 15.8771C21.6938 14.8742 21.9933 14.2815 22.5757 14.2067C22.9001 14.1781 23.2256 14.2469 23.5106 14.4044C23.7956 14.5618 24.0272 14.8007 24.1757 15.0905L24.2922 15.4233C24.4163 15.8265 24.6487 16.8255 24.8042 17.4937C26.1252 23.1257 27.3642 27.7926 29.1127 27.7926C29.2145 27.7924 29.3152 27.7707 29.4082 27.7291C29.5011 27.6874 29.5843 27.6266 29.6522 27.5507C30.3715 26.7923 30.2576 23.7427 29.9837 18.8076C29.8499 16.4179 29.681 12.0678 29.9498 11.6396L30.0586 11.4156C30.1468 11.2565 30.277 11.1246 30.435 11.0343C30.593 10.944 30.7727 10.8988 30.9546 10.9036C31.0004 10.9037 31.0461 10.9065 31.0916 10.9119C31.3614 10.9379 31.6195 11.035 31.8395 11.1933C32.0595 11.3516 32.2336 11.5655 32.344 11.8131C32.4132 12.1222 32.5034 13.6121 32.609 15.3331V15.3913C33.2061 25.2473 33.6023 27.6575 34.6186 27.6575C35.7706 27.6575 36.3383 25.3631 37.4519 18.4703L37.4576 18.4409C37.6678 16.8931 37.9585 15.3574 38.3287 13.8399C38.5408 13.7004 38.7815 13.61 39.0331 13.5754C39.2846 13.5407 39.5408 13.5627 39.7828 13.6396C39.9673 13.7942 40.1145 13.9886 40.2132 14.2082C40.312 14.4277 40.3598 14.6668 40.353 14.9075C40.353 15.0303 40.2308 16.0198 40.1117 16.9766C39.032 25.655 38.8765 28.6323 39.4717 29.2294C39.5458 29.3055 39.6379 29.3617 39.7395 29.3929C39.841 29.4241 39.9488 29.4293 40.0528 29.4079C40.6627 29.2799 41.0647 28.3641 42.1456 25.5641C42.9629 23.4521 43.9779 20.8243 45.0307 19.5443C45.0817 19.5144 45.141 19.5018 45.1997 19.5084C45.344 19.5124 45.4859 19.5464 45.6164 19.6083C45.8819 19.7324 46.1443 19.9705 46.0899 20.2732V20.2739Z" fill="white"/>
<path d="M23.0419 10.8511C21.9847 10.8492 20.9651 11.244 20.1847 11.9573C19.4043 12.6706 18.9198 13.6506 18.8269 14.7038C18.734 15.7569 19.0394 16.8067 19.6828 17.6456C20.3262 18.4846 21.2608 19.0517 22.3021 19.2351C22.2094 18.9496 22.1451 18.6557 22.1101 18.3576C21.3779 18.153 20.7347 17.7103 20.2822 17.0994C19.8297 16.4885 19.5937 15.7442 19.6113 14.9842C19.629 14.2241 19.8994 13.4916 20.3798 12.9024C20.8603 12.3132 21.5233 11.9008 22.2642 11.7305C23.0051 11.5601 23.7817 11.6415 24.4712 11.9617C25.1607 12.282 25.7239 12.8228 26.0717 13.4988C26.4196 14.1748 26.5323 14.9474 26.392 15.6946C26.2518 16.4418 25.8666 17.121 25.2973 17.6248C25.3311 17.689 25.3608 17.7553 25.3862 17.8232C25.4589 18.033 25.5135 18.2486 25.5494 18.4677C26.2651 17.9401 26.7959 17.2 27.066 16.3528C27.336 15.5057 27.3316 14.5949 27.0533 13.7505C26.7749 12.906 26.237 12.171 25.5162 11.6505C24.7953 11.1299 23.9285 10.8504 23.0394 10.8517L23.0419 10.8511Z" fill="white"/>
</g>
<defs>
<clipPath id="clip0">
<rect width="32" height="38.2291" fill="white" transform="translate(15 10)"/>
</clipPath>
</defs>
</svg>
