<svg width="25" height="24" viewBox="0 0 25 24" fill="none" xmlns="http://www.w3.org/2000/svg">
<path d="M18.7484 0.0049936L15.5065 0C11.8643 0 9.51056 2.31828 9.51056 5.90643V8.62969H6.25097C5.9693 8.62969 5.74121 8.84891 5.74121 9.11932V13.065C5.74121 13.3354 5.96956 13.5544 6.25097 13.5544H9.51056V23.5106C9.51056 23.781 9.73865 24 10.0203 24H14.2732C14.5548 24 14.7829 23.7808 14.7829 23.5106V13.5544H18.5941C18.8758 13.5544 19.1039 13.3354 19.1039 13.065L19.1055 9.11932C19.1055 8.98948 19.0516 8.86514 18.9562 8.77326C18.8607 8.68138 18.7307 8.62969 18.5954 8.62969H14.7829V6.32115C14.7829 5.21157 15.0583 4.64829 16.5639 4.64829L18.7478 4.64755C19.0293 4.64755 19.2573 4.42833 19.2573 4.15817V0.494367C19.2573 0.224462 19.0295 0.00549296 18.7484 0.0049936Z" fill="#192A3E"/>
</svg>
