<svg width="42" height="42" viewBox="0 0 42 42" fill="none" xmlns="http://www.w3.org/2000/svg">
<rect opacity="0.15" width="42" height="41.3115" rx="5" fill="#4CAF50"/>
<path d="M30.3333 8.99992H24.76C24.2 7.45325 22.7333 6.33325 21 6.33325C19.2667 6.33325 17.8 7.45325 17.24 8.99992H11.6667C10.2 8.99992 9 10.1999 9 11.6666V30.3332C9 31.7999 10.2 32.9999 11.6667 32.9999H30.3333C31.8 32.9999 33 31.7999 33 30.3332V11.6666C33 10.1999 31.8 8.99992 30.3333 8.99992ZM21 8.99992C21.7333 8.99992 22.3333 9.59992 22.3333 10.3333C22.3333 11.0666 21.7333 11.6666 21 11.6666C20.2667 11.6666 19.6667 11.0666 19.6667 10.3333C19.6667 9.59992 20.2667 8.99992 21 8.99992ZM18.3333 27.6666L13 22.3333L14.88 20.4532L18.3333 23.8932L27.12 15.1066L29 16.9999L18.3333 27.6666Z" fill="#4CAF50"/>
</svg>
