<svg width="671" height="382" viewBox="0 0 671 382" fill="none" xmlns="http://www.w3.org/2000/svg">
<g clip-path="url(#clip0)">
<path opacity="0.1" d="M671 252.553C671.036 271.966 665.737 291.015 655.68 307.619C655.68 327.925 646.213 346.332 630.858 359.746C627.014 363.105 622.876 366.111 618.493 368.726C618.317 368.838 618.135 368.943 617.954 369.049C617.625 369.242 617.297 369.436 616.962 369.635L616.651 369.817C602.117 377.918 585.735 382.125 569.095 382.029H127.379C96.9198 382.029 69.3467 371.424 49.3692 354.285C29.3917 337.146 17.0802 313.426 17.0802 287.265C5.89343 270.039 -0.0409844 249.93 0.000213049 229.39C0.000213049 171.239 46.4775 124.098 103.818 124.098C105.847 124.098 107.859 124.168 109.859 124.279C145.837 62.9257 226.991 20.1423 321.271 20.1423C379.233 20.1423 432.215 36.3019 472.797 63.0019C488.17 54.3114 505.533 49.7543 523.193 49.7751C580.521 49.7751 627.01 96.9165 627.01 155.068C627.001 158.747 626.805 162.424 626.423 166.083C640.242 175.866 651.506 188.828 659.264 203.878C667.022 218.927 671.048 235.622 671 252.553Z" fill="#4CAF50"/>
<path opacity="0.1" d="M242.24 285.805C369.223 285.805 472.164 283.048 472.164 279.646C472.164 276.245 369.223 273.487 242.24 273.487C115.257 273.487 12.3174 276.245 12.3174 279.646C12.3174 283.048 115.257 285.805 242.24 285.805Z" fill="#4CAF50"/>
<g opacity="0.7">
<path opacity="0.7" d="M156.605 234.188H83.2881V274.66H156.605V234.188Z" fill="#65617D"/>
<path opacity="0.1" d="M131.384 241.227H109.096V245.919H131.384V241.227Z" fill="black"/>
<path opacity="0.1" d="M128.598 241.813H111.882V245.333H128.598V241.813Z" fill="black"/>
<path opacity="0.7" d="M231.096 234.188H157.778V274.66H231.096V234.188Z" fill="#65617D"/>
<path opacity="0.1" d="M205.874 241.227H183.586V245.919H205.874V241.227Z" fill="black"/>
<path opacity="0.1" d="M203.088 241.813H186.372V245.333H203.088V241.813Z" fill="black"/>
<path opacity="0.7" d="M156.605 192.542H83.2881V233.015H156.605V192.542Z" fill="#65617D"/>
<path opacity="0.1" d="M131.384 199.581H109.096V204.274H131.384V199.581Z" fill="black"/>
<path opacity="0.1" d="M128.598 200.168H111.882V203.687H128.598V200.168Z" fill="black"/>
<path opacity="0.7" d="M231.096 192.542H157.778V233.015H231.096V192.542Z" fill="#65617D"/>
<path opacity="0.1" d="M205.874 199.581H183.586V204.274H205.874V199.581Z" fill="black"/>
<path opacity="0.1" d="M203.088 200.168H186.372V203.687H203.088V200.168Z" fill="black"/>
<path opacity="0.7" d="M156.605 150.311H83.2881V190.783H156.605V150.311Z" fill="#65617D"/>
<path opacity="0.1" d="M131.384 157.349H109.096V162.042H131.384V157.349Z" fill="black"/>
<path opacity="0.1" d="M128.598 157.936H111.882V161.455H128.598V157.936Z" fill="black"/>
<path opacity="0.7" d="M231.096 150.311H157.778V190.783H231.096V150.311Z" fill="#65617D"/>
<path opacity="0.1" d="M205.874 157.349H183.586V162.042H205.874V157.349Z" fill="black"/>
<path opacity="0.1" d="M203.088 157.936H186.372V161.455H203.088V157.936Z" fill="black"/>
<path opacity="0.7" d="M231.096 108.079H157.778V148.551H231.096V108.079Z" fill="#65617D"/>
<path opacity="0.1" d="M205.874 115.117H183.586V119.81H205.874V115.117Z" fill="black"/>
<path opacity="0.1" d="M203.088 115.704H186.372V119.223H203.088V115.704Z" fill="black"/>
</g>
<g opacity="0.7">
<path opacity="0.7" d="M305.587 233.602H232.27V274.074H305.587V233.602Z" fill="#65617D"/>
<path opacity="0.1" d="M280.366 240.64H258.077V245.333H280.366V240.64Z" fill="black"/>
<path opacity="0.1" d="M277.58 241.227H260.863V244.746H277.58V241.227Z" fill="black"/>
<path opacity="0.7" d="M380.077 233.602H306.76V274.074H380.077V233.602Z" fill="#65617D"/>
<path opacity="0.1" d="M354.856 240.64H332.567V245.333H354.856V240.64Z" fill="black"/>
<path opacity="0.1" d="M352.07 241.227H335.354V244.746H352.07V241.227Z" fill="black"/>
<path opacity="0.7" d="M305.587 191.956H232.27V232.428H305.587V191.956Z" fill="#65617D"/>
<path opacity="0.1" d="M280.366 198.995H258.077V203.687H280.366V198.995Z" fill="black"/>
<path opacity="0.1" d="M277.58 199.581H260.863V203.101H277.58V199.581Z" fill="black"/>
<path opacity="0.7" d="M380.077 191.956H306.76V232.428H380.077V191.956Z" fill="#65617D"/>
<path opacity="0.1" d="M354.856 198.995H332.567V203.687H354.856V198.995Z" fill="black"/>
<path opacity="0.1" d="M352.07 199.581H335.354V203.101H352.07V199.581Z" fill="black"/>
<path opacity="0.7" d="M305.587 149.724H232.27V190.196H305.587V149.724Z" fill="#65617D"/>
<path opacity="0.1" d="M280.366 156.763H258.077V161.455H280.366V156.763Z" fill="black"/>
<path opacity="0.1" d="M277.58 157.349H260.863V160.869H277.58V157.349Z" fill="black"/>
<path opacity="0.7" d="M380.077 149.724H306.76V190.196H380.077V149.724Z" fill="#65617D"/>
<path opacity="0.1" d="M354.856 156.763H332.567V161.455H354.856V156.763Z" fill="black"/>
<path opacity="0.1" d="M352.07 157.349H335.354V160.869H352.07V157.349Z" fill="black"/>
<path opacity="0.7" d="M380.077 107.492H306.76V147.964H380.077V107.492Z" fill="#65617D"/>
<path opacity="0.1" d="M354.856 114.531H332.567V119.223H354.856V114.531Z" fill="black"/>
<path opacity="0.1" d="M352.07 115.117H335.354V118.637H352.07V115.117Z" fill="black"/>
</g>
<path opacity="0.1" d="M515.151 0.0645503C515.151 0.0645503 465.771 -2.91516 471.577 31.6916C471.577 31.6916 470.404 37.8094 475.965 40.5838C475.965 40.5838 476.053 38.0205 481.032 38.8945C482.805 39.1884 484.606 39.275 486.399 39.1526C488.821 38.9853 491.123 38.0341 492.957 36.4427C492.957 36.4427 506.84 30.7062 512.236 8.01823C512.236 8.01823 516.23 3.06771 516.072 1.79489L507.737 5.35528C507.737 5.35528 510.588 11.3675 508.324 16.3649C508.324 16.3649 508.054 5.57231 506.453 5.80693C506.13 5.85972 502.124 7.8892 502.124 7.8892C502.124 7.8892 507.022 18.3592 503.327 25.9727C503.327 25.9727 504.728 13.0685 500.593 8.64585L494.728 12.0713C494.728 12.0713 500.453 22.8874 496.57 31.7151C496.57 31.7151 497.567 18.1774 493.49 12.9042L488.176 17.0512C488.176 17.0512 493.555 27.7148 490.276 35.035C490.276 35.035 489.848 19.2742 487.027 18.0835C487.027 18.0835 482.375 22.1894 481.666 23.867C481.666 23.867 485.349 31.6095 483.062 35.6919C483.062 35.6919 481.66 25.1926 480.51 25.1339C480.51 25.1339 475.877 32.0905 475.396 36.865C475.396 36.865 475.595 29.7677 479.39 24.4711C479.39 24.4711 474.909 25.2395 472.293 28.1488C472.293 28.1488 473.014 23.2276 480.534 22.7994C480.534 22.7994 484.364 17.5204 485.384 17.1978C485.384 17.1978 477.912 16.5761 473.378 18.5821C473.378 18.5821 477.366 13.9425 486.757 16.0541L492.006 11.7663C492.006 11.7663 482.164 10.4231 477.988 11.9071C477.988 11.9071 482.792 7.80121 493.42 10.7985L499.145 7.40822C499.145 7.40822 490.751 5.60163 485.754 6.23511C485.754 6.23511 491.033 3.39032 500.822 6.4756L504.928 4.63968C504.928 4.63968 498.781 3.43138 496.98 3.23781C495.18 3.04425 495.086 2.55154 495.086 2.55154C498.98 1.90214 502.978 2.34684 506.635 3.8361C506.635 3.8361 515.304 0.610047 515.151 0.0645503Z" fill="#4CAF50"/>
<path opacity="0.1" d="M454.244 8.86879C454.244 8.86879 431.956 7.51971 434.566 23.1631C434.566 23.1631 434.044 25.9258 436.543 27.181C436.543 27.181 436.584 26.0079 438.836 26.4127C439.636 26.5473 440.449 26.5867 441.258 26.53C442.353 26.4556 443.393 26.025 444.221 25.3041C444.221 25.3041 450.496 22.7174 452.936 12.4644C452.936 12.4644 454.737 10.2237 454.667 9.64891L450.901 11.2561C450.901 11.2561 452.192 13.9777 451.177 16.2359C451.177 16.2359 451.054 11.3558 450.332 11.4731C450.186 11.4731 448.373 12.4116 448.373 12.4116C448.373 12.4116 450.59 17.1451 448.919 20.5882C448.919 20.5882 449.552 14.7578 447.681 12.7576L445.03 14.3062C445.03 14.3062 447.622 19.1922 445.863 23.1807C445.863 23.1807 446.314 17.063 444.473 14.6815L442.074 16.5527C442.074 16.5527 444.502 21.3741 443.024 24.6823C443.024 24.6823 442.83 17.5557 441.552 17.0219C441.552 17.0219 439.452 18.8754 439.129 19.6379C439.129 19.6379 440.795 23.1573 439.763 24.9756C439.763 24.9756 439.129 20.2304 438.59 20.2128C438.59 20.2128 436.502 23.3567 436.279 25.4918C436.383 23.4992 437.006 21.5684 438.085 19.8902C436.877 20.1191 435.762 20.696 434.877 21.5501C434.877 21.5501 435.205 19.3329 438.601 19.1335C438.601 19.1335 440.361 16.7521 440.795 16.6055C440.795 16.6055 437.417 16.3239 435.37 17.2331C435.37 17.2331 437.17 15.1332 441.417 16.0893L443.763 14.1537C443.763 14.1537 439.317 13.5671 437.428 14.2182C437.428 14.2182 439.599 12.3647 444.402 13.7137L446.983 12.1711C446.983 12.1711 443.194 11.3499 440.93 11.6491C440.93 11.6491 443.317 10.3586 447.74 11.7546L449.587 10.9276C449.587 10.9276 446.807 10.3762 445.992 10.2941C445.177 10.212 445.136 9.98325 445.136 9.98325C446.896 9.69033 448.704 9.89343 450.356 10.5698C450.356 10.5698 454.315 9.11515 454.244 8.86879Z" fill="#4CAF50"/>
<path d="M131.496 378.187C144.521 378.187 155.081 376.402 155.081 374.199C155.081 371.996 144.521 370.21 131.496 370.21C118.47 370.21 107.911 371.996 107.911 374.199C107.911 376.402 118.47 378.187 131.496 378.187Z" fill="#4CAF50"/>
<path d="M141.25 367.676C142.327 366.799 143.11 365.614 143.496 364.28C143.79 362.937 143.215 361.347 141.924 360.825C140.482 360.274 138.939 361.277 137.772 362.286C136.605 363.295 135.261 364.45 133.736 364.233C134.522 363.519 135.11 362.614 135.443 361.606C135.776 360.598 135.843 359.521 135.637 358.479C135.57 358.048 135.388 357.642 135.109 357.306C134.305 356.45 132.857 356.813 131.895 357.488C128.845 359.635 127.994 363.782 127.977 367.506C127.672 366.163 127.93 364.761 127.924 363.4C127.918 362.039 127.537 360.467 126.369 359.746C125.65 359.359 124.84 359.169 124.023 359.195C122.657 359.142 121.126 359.283 120.193 360.286C119.02 361.529 119.331 363.617 120.34 364.978C121.349 366.339 122.891 367.213 124.311 368.157C125.446 368.834 126.415 369.759 127.144 370.861C127.232 371.015 127.302 371.179 127.355 371.348H135.954C137.877 370.369 139.658 369.134 141.25 367.676Z" fill="#4CAF50"/>
<path d="M420.759 200.608C420.711 200.164 420.552 199.738 420.297 199.372C420.041 199.005 419.698 198.708 419.298 198.508C418.962 198.364 418.6 198.29 418.234 198.29C417.868 198.289 417.506 198.362 417.168 198.504C416.831 198.647 416.526 198.855 416.271 199.118C416.017 199.38 415.817 199.692 415.685 200.033L402.658 227.443L399.726 335.369H404.418L406.178 227.683L420.513 202.309C420.772 201.782 420.858 201.187 420.759 200.608Z" fill="#3F3D56"/>
<path opacity="0.1" d="M630.857 359.746C627.014 363.105 622.876 366.111 618.493 368.726C618.424 368.823 618.348 368.913 618.264 368.996C617.799 369.391 617.246 369.669 616.651 369.806C602.116 377.906 585.734 382.113 569.095 382.018H246.604C209.652 378.217 187.105 373.178 187.105 367.647C187.105 363.359 200.643 359.365 223.952 356.022C226.368 355.67 228.889 355.329 231.512 355.001C233.127 354.798 234.779 354.602 236.469 354.414L239.337 354.08C241.464 353.838 243.648 353.601 245.888 353.37H246.07L248.416 353.136C250.399 352.93 252.422 352.737 254.487 352.549L255.989 352.414L259.819 352.074C262.306 351.851 264.847 351.638 267.444 351.435C269.598 351.267 271.788 351.098 274.013 350.93C296.571 349.259 322.578 347.997 350.879 347.182L358.961 346.906L361.683 346.848L367.431 346.719L369.736 346.672L372.158 346.625L373.883 346.596L381.977 346.467L386.136 346.408H386.986C396.82 346.291 406.838 346.23 417.04 346.226C437.205 346.226 456.761 346.467 475.395 346.924C486.093 347.182 496.465 347.511 506.511 347.909H506.605C535.568 349.047 561.493 350.725 582.949 352.807L583.342 352.848C588.849 353.382 594.064 353.951 598.955 354.538C603.56 355.089 607.882 355.67 611.894 356.262C613.284 356.467 614.633 356.678 615.947 356.884L616.282 356.942C621.842 357.84 626.722 358.755 630.857 359.746Z" fill="#4CAF50"/>
<path d="M618.493 368.726C618.424 368.823 618.348 368.913 618.264 368.996C617.799 369.391 617.246 369.668 616.651 369.805C615.465 370.138 614.245 370.335 613.014 370.392H612.645C611.942 370.415 611.239 370.392 610.539 370.322C610.029 370.248 609.513 370.214 608.997 370.222H608.926C608.176 370.327 607.439 370.51 606.727 370.767C605.14 371.202 603.504 371.435 601.858 371.459H601.272C599.43 371.459 597.565 371.395 595.717 371.407C595.418 371.407 595.131 371.407 594.82 371.407C591.653 371.489 588.503 371.993 585.336 372.046H584.321C581.218 371.97 578.045 371.307 575.576 369.43C575.078 369.101 574.674 368.648 574.403 368.116C574.192 367.555 574.122 366.951 574.197 366.356C574.256 365.295 574.461 364.139 575.259 363.424C575.76 363.039 576.335 362.762 576.948 362.608C578.022 362.262 579.101 361.928 580.174 361.594C581.248 361.259 582.473 360.902 583.629 360.561L583.852 360.491L584.497 360.297L584.913 360.157C585.418 359.994 585.902 359.774 586.356 359.5C586.955 359.121 587.462 358.614 587.84 358.016C587.905 357.91 587.975 357.799 588.034 357.687C588.092 357.576 588.034 357.505 587.993 357.412C587.893 356.678 587.817 355.928 587.688 355.212C586.037 354.829 584.532 353.978 583.353 352.76C582.341 351.756 581.488 350.603 580.825 349.341C579.365 346.595 578.614 343.528 577.523 340.613C575.851 336.178 573.417 332.084 570.965 328.025C568.725 324.283 566.473 320.529 563.927 316.992C562.232 314.646 560.408 312.411 558.73 310.059C553.985 303.496 550.581 296.061 548.712 288.18C548.426 286.668 548.02 285.182 547.498 283.734C546.489 281.271 544.642 279.265 543.21 277.012C541.672 274.584 540.618 271.882 540.108 269.053C539.814 267.446 539.322 265.709 537.72 265.533L537.55 265.868C534.231 272.32 530.823 278.889 525.82 284.157C525.019 284.931 524.287 285.773 523.632 286.673C523.106 287.546 522.636 288.451 522.224 289.383C521.432 291.056 520.381 292.594 519.11 293.94C518.731 294.323 518.319 294.671 517.878 294.979C517.292 295.405 516.64 295.731 515.948 295.946C515.676 296.03 515.397 296.092 515.115 296.134C515.115 296.204 515.145 296.269 515.15 296.339C515.156 296.41 515.186 296.492 515.197 296.568C516.06 301.261 515.69 306.097 514.124 310.604C514.083 310.745 514.036 310.88 513.983 311.021C513.741 311.678 513.477 312.323 513.191 312.956C512.476 314.511 511.625 316.001 510.957 317.579C510.845 317.848 510.734 318.118 510.634 318.388C508.288 324.67 508.875 331.685 508.57 338.436C508.543 339.913 508.368 341.383 508.047 342.824C507.649 344.449 507.009 346.126 506.657 347.804C506.336 349.061 506.31 350.376 506.581 351.646L506.44 351.698C505.813 351.933 505.173 352.144 504.534 352.344V352.432C504.763 353.746 504.986 355.059 505.214 356.367C505.408 357.494 505.637 358.714 506.423 359.511C506.637 359.688 506.833 359.884 507.009 360.098C507.473 360.825 507.062 361.787 507.15 362.649C507.279 363.869 508.405 364.908 508.229 366.122C508.15 366.485 507.984 366.823 507.745 367.107C507.505 367.391 507.201 367.613 506.857 367.753C506.568 367.883 506.265 367.98 505.954 368.04L505.76 368.081C505.408 368.145 505.056 368.181 504.704 368.216C500.334 368.65 495.906 369.084 491.577 368.345C490.721 368.198 489.871 368.005 489.003 367.934C487.906 367.885 486.807 367.931 485.718 368.069C477.688 368.829 469.612 368.986 461.558 368.538C459.464 368.421 457.06 368.081 455.951 366.292C455.03 364.808 455.365 362.89 455.828 361.195C455.961 360.571 456.201 359.976 456.538 359.435C456.576 359.376 456.619 359.322 456.667 359.271C457.746 357.928 459.775 357.846 461.523 357.898L467.236 358.068C467.799 358.114 468.365 358.071 468.914 357.939C469.84 357.67 470.544 356.931 471.412 356.514C472.503 355.992 473.876 355.927 474.662 355.036L474.761 354.907C474.9 354.718 475.029 354.522 475.149 354.32C475.149 354.279 475.201 354.238 475.231 354.197C475.252 354.161 475.276 354.125 475.301 354.092C476.022 353.141 477.284 352.825 478.31 352.22C478.465 352.13 478.613 352.026 478.75 351.91L478.867 351.804C477.762 351.016 476.798 350.046 476.017 348.936C475.715 348.612 475.492 348.222 475.366 347.798C475.294 347.479 475.318 347.146 475.436 346.842C475.461 346.767 475.493 346.694 475.53 346.625L475.559 346.566C475.958 345.78 476.779 345.07 477.231 344.267C477.248 344.241 477.262 344.214 477.272 344.185C477.894 343.012 478.017 341.193 477.096 340.249C477.565 332.524 479.688 324.998 480.158 317.25C480.345 314.182 480.269 311.103 480.41 308.024C480.551 304.944 480.879 301.959 481.225 298.938C481.999 292.034 483.876 285.271 483.612 278.338C483.59 277.692 483.617 277.044 483.694 276.402C483.692 276.355 483.692 276.308 483.694 276.262C483.882 274.841 484.325 273.466 485.002 272.203C485.853 270.775 486.816 269.418 487.882 268.144C491.489 263.451 495.824 258.759 497.109 252.987C497.771 250.007 499.238 247.28 500.698 244.599C501.56 243.004 502.458 241.367 503.836 240.194C504.583 239.677 505.276 239.088 505.907 238.435C506.869 237.191 506.904 235.473 507.473 233.994C507.766 233.226 508.218 232.522 508.44 231.73C508.44 231.648 508.482 231.572 508.499 231.49C508.629 230.691 508.698 229.883 508.704 229.073C508.704 228.839 508.74 228.61 508.769 228.381C509.112 226.062 509.785 223.804 510.769 221.677C510.892 221.407 511.009 221.131 511.127 220.861C508.421 219.283 506.033 217.212 504.088 214.755C503.429 213.961 502.857 213.097 502.382 212.18C501.173 209.781 500.898 207.048 500.329 204.42C498.968 198.156 495.853 192.255 495.419 185.85C495.29 183.897 495.419 181.879 494.739 180.031C494.552 179.532 494.33 179.046 494.076 178.577C493.971 178.377 493.871 178.178 493.765 177.99L493.648 177.767L493.349 177.181L492.868 177.556C480.868 186.952 468.27 195.558 455.153 203.318L454.027 203.986C453.441 204.269 452.93 204.687 452.537 205.206C452.491 205.283 452.449 205.359 452.408 205.435C452.139 205.992 452.068 206.608 451.822 207.195C451.294 208.538 449.939 209.394 448.555 209.793C446.05 210.437 443.394 210.095 441.135 208.837C440.848 208.69 440.549 208.538 440.291 208.368C439.605 208.748 438.881 209.057 438.132 209.289C435.786 209.969 433.328 209.94 430.9 209.934C428.472 209.928 425.991 209.934 423.691 210.732C422.155 211.254 420.665 212.116 419.07 212.198C418.886 212.21 418.702 212.21 418.518 212.198C417.609 212.094 416.724 211.834 415.902 211.43L415.421 211.213C415.172 211.094 414.929 210.963 414.694 210.82C414.437 210.661 414.199 210.474 413.984 210.262C413.674 209.951 413.448 209.565 413.327 209.142C413.248 208.836 413.248 208.515 413.327 208.209C413.35 208.072 413.421 207.947 413.527 207.858C413.631 207.796 413.751 207.765 413.873 207.77C414.545 207.762 415.217 207.819 415.879 207.94C416.267 207.993 416.66 208.015 417.052 208.004H417.263C417.609 207.967 417.943 207.859 418.246 207.688C418.549 207.516 418.813 207.285 419.023 207.007C419.087 206.921 419.138 206.826 419.175 206.725C419.246 206.561 419.282 206.383 419.281 206.203C419.284 206.159 419.284 206.113 419.281 206.069C419.034 205.957 418.788 205.846 418.553 205.711C418.43 205.646 418.313 205.576 418.196 205.505L418.125 205.458C417.915 205.315 417.718 205.152 417.539 204.972C417.425 204.859 417.324 204.733 417.24 204.596C417.084 204.384 416.967 204.146 416.894 203.892C416.41 203.791 415.91 203.805 415.433 203.933C414.794 204.109 414.149 204.485 413.515 204.614C413.195 204.694 412.859 204.68 412.547 204.573C411.632 204.244 411.31 203.13 411.116 202.174C411.081 201.992 411.04 201.804 411.011 201.617C410.943 201.256 410.943 200.886 411.011 200.526C411.294 199.706 411.835 199 412.553 198.514L414.477 196.901L414.618 196.783C414.618 196.625 414.553 196.467 414.53 196.308C414.462 195.946 414.462 195.574 414.53 195.211C414.813 194.393 415.355 193.689 416.072 193.205L420.331 189.622C421.128 188.953 421.996 188.249 423.035 188.179C424.577 188.073 425.809 189.352 426.964 190.378C428.419 191.669 430.184 192.724 432.126 192.853C433.05 192.896 433.975 192.769 434.853 192.478L435.352 192.314C435.246 192.097 435.141 191.88 435.041 191.663C434.871 191.305 434.701 190.941 434.537 190.578C437.035 190.419 439.305 189.047 441.2 187.404C443.094 185.762 444.719 183.82 446.631 182.207C448.696 180.448 451.065 179.14 453.159 177.445C458.027 173.497 461.259 167.696 466.468 164.218C468.274 163.004 470.362 162.036 471.594 160.229C471.975 159.643 472.263 159.056 472.656 158.47C473.905 156.71 476.046 155.9 477.811 154.68C479.577 153.46 481.114 151.671 482.551 149.953C483.571 148.727 484.598 147.501 485.571 146.24C486.469 144.568 487.225 142.82 488.164 141.172C488.96 139.78 489.889 138.467 490.938 137.254C491.179 136.785 491.425 136.315 491.689 135.858C491.953 135.4 492.146 135.089 492.393 134.685C492.563 134.421 492.739 134.169 492.921 133.911C492.387 132.966 491.877 132.151 491.636 131.793L491.519 131.635C491.001 131.083 490.449 130.566 489.865 130.086C489.252 129.993 488.644 129.864 488.047 129.699C484.427 128.707 481.233 126.552 478.959 123.566C476.684 120.58 475.455 116.929 475.459 113.176C475.456 113.158 475.456 113.14 475.459 113.123C475.462 110.435 476.101 107.786 477.325 105.392C477.571 104.911 477.835 104.448 478.122 103.996C477.854 103.912 477.593 103.806 477.342 103.679C476.914 103.469 476.541 103.161 476.251 102.782C476.012 102.444 475.857 102.054 475.8 101.644C475.7 100.677 475.846 99.7012 476.222 98.8052C476.382 98.3738 476.564 97.9509 476.767 97.5382C476.783 97.5141 476.797 97.4885 476.808 97.462C479.43 92.183 485.02 88.9393 490.604 88.7105C496.628 88.4701 502.493 91.2973 507.244 95.3445C508.662 96.5077 509.93 97.8415 511.021 99.3155C513.502 102.764 514.623 107.175 514.951 111.545C515.074 112.897 515.051 114.258 514.881 115.604C514.819 116.084 514.721 116.558 514.587 117.024C514.511 117.299 514.411 117.575 514.306 117.851C514.2 118.126 514.136 118.249 514.042 118.437V118.466C513.954 118.654 513.854 118.83 513.754 119.006L513.702 119.082L513.625 119.206C513.672 119.317 513.725 119.434 513.778 119.546C513.831 119.657 513.878 119.763 513.936 119.868H514.007C515.18 119.962 516.265 120.126 517.461 120.22C518.024 120.247 518.583 120.334 519.127 120.478C520.3 120.83 521.186 121.687 522.171 122.379C524.611 124.103 527.614 124.907 530.013 126.69C533.533 129.318 535.292 133.658 537.427 137.547C540.243 142.756 544.829 147.19 546.853 152.762C547.768 155.292 548.687 157.818 549.61 160.341C551.41 165.285 553.211 170.253 555.657 174.917C559.059 181.404 563.663 187.234 566.391 194.05C566.661 194.733 567.169 195.295 567.822 195.634C571.538 200.882 574.842 206.41 577.705 212.169C579.212 215.213 580.638 218.374 581.077 221.747C581.421 224.75 581.172 227.791 580.344 230.698C579.877 232.425 579.303 234.121 578.626 235.778C578.362 236.357 578.165 236.966 578.039 237.59C578.039 237.655 578.039 237.719 578.039 237.784C577.922 238.91 578.35 240.024 578.467 241.15C578.565 242.057 578.463 242.974 578.168 243.837C578.121 243.972 578.068 244.107 578.016 244.242C577.652 244.927 577.344 245.641 577.095 246.377C577.074 246.465 577.058 246.556 577.048 246.646C576.854 247.919 577.359 249.204 577.634 250.477C578.667 255.075 578.479 259.862 578.221 264.554C578.086 266.9 579.981 268.783 581.564 270.513C584.497 273.757 586.79 277.552 589.002 281.329C590.208 283.247 591.224 285.278 592.034 287.394C592.873 289.811 593.207 292.368 593.67 294.873C595.166 302.616 600.052 309.455 601.378 317.215C601.992 320.769 603.559 324.089 605.911 326.823C606.62 327.555 607.273 328.339 607.865 329.169C608.273 329.83 608.598 330.539 608.832 331.28C609.409 333.005 609.681 334.818 609.636 336.636C609.543 337.506 609.593 338.386 609.783 339.24C610.334 341.041 612.305 342.032 613.12 343.727C613.935 345.422 613.372 347.593 613.707 349.516C613.969 351.068 614.807 352.463 616.053 353.423C615.583 353.833 615.091 354.209 614.586 354.596C615.053 354.959 615.463 355.39 615.801 355.875C616.031 356.2 616.228 356.547 616.387 356.913C617.161 358.714 617.185 360.855 617.818 362.778C618.088 363.576 618.469 364.421 618.235 365.23C618.134 365.462 618.067 365.707 618.035 365.958C618.035 366.486 618.587 366.832 618.798 367.313C618.875 367.554 618.887 367.812 618.833 368.06C618.78 368.308 618.662 368.538 618.493 368.726Z" fill="url(#paint0_linear)"/>
<path d="M494.358 139.97C497.948 139.002 501.145 136.978 504.277 134.978L515.192 128.028C512.23 127.793 509.673 125.681 508.154 123.124C506.635 120.567 506.007 117.593 505.491 114.672C500.798 116.502 496.734 119.605 492.945 122.883C491.443 124.18 488.252 126.139 487.789 128.162C487.326 130.186 490.282 131.828 491.426 133.183C491.819 133.635 495.52 139.647 494.358 139.97Z" fill="#FBBEBE"/>
<path opacity="0.1" d="M494.358 139.97C497.948 139.002 501.145 136.978 504.277 134.978L515.192 128.028C512.23 127.793 509.673 125.681 508.154 123.124C506.635 120.567 506.007 117.593 505.491 114.672C500.798 116.502 496.734 119.605 492.945 122.883C491.443 124.18 488.252 126.139 487.789 128.162C487.326 130.186 490.282 131.828 491.426 133.183C491.819 133.635 495.52 139.647 494.358 139.97Z" fill="black"/>
<path d="M434.713 197.382C432.789 198.367 430.742 199.376 428.589 199.235C426.654 199.112 424.888 198.062 423.434 196.778C422.261 195.757 421.052 194.484 419.51 194.59C418.477 194.66 417.609 195.358 416.812 196.021L412.559 199.581C411.844 200.062 411.302 200.762 411.017 201.576C410.933 202.128 410.967 202.691 411.116 203.23C411.31 204.18 411.632 205.288 412.547 205.611C413.462 205.934 414.46 205.241 415.427 204.978C416.019 204.826 416.64 204.838 417.225 205.01C417.81 205.182 418.338 205.51 418.753 205.957C419.099 206.297 419.307 206.752 419.34 207.236C419.34 208.297 418.167 208.995 417.087 209.048C416.008 209.101 414.976 208.749 413.908 208.814C413.844 208.805 413.778 208.81 413.716 208.828C413.653 208.845 413.595 208.875 413.544 208.916C413.493 208.956 413.451 209.006 413.42 209.063C413.389 209.12 413.369 209.183 413.363 209.248C413.297 209.618 413.325 209.999 413.445 210.356C413.565 210.713 413.772 211.034 414.049 211.289C414.606 211.798 415.255 212.196 415.961 212.462C416.782 212.868 417.667 213.126 418.577 213.225C420.378 213.342 422.032 212.345 423.739 211.764C426.038 210.99 428.513 210.966 430.941 210.972C433.37 210.978 435.833 211.013 438.162 210.333C440.49 209.652 442.701 208.145 443.611 205.898C443.718 205.689 443.753 205.45 443.71 205.218C443.62 204.971 443.445 204.763 443.218 204.631C439.945 202.209 438.619 199.264 434.936 197.522L434.713 197.382Z" fill="#FBBEBE"/>
<path opacity="0.1" d="M434.713 197.382C432.789 198.367 430.742 199.376 428.589 199.235C426.654 199.112 424.888 198.062 423.434 196.778C422.261 195.757 421.052 194.484 419.51 194.59C418.477 194.66 417.609 195.358 416.812 196.021L412.559 199.581C411.844 200.062 411.302 200.762 411.017 201.576C410.933 202.128 410.967 202.691 411.116 203.23C411.31 204.18 411.632 205.288 412.547 205.611C413.462 205.934 414.46 205.241 415.427 204.978C416.019 204.826 416.64 204.838 417.225 205.01C417.81 205.182 418.338 205.51 418.753 205.957C419.099 206.297 419.307 206.752 419.34 207.236C419.34 208.297 418.167 208.995 417.087 209.048C416.008 209.101 414.976 208.749 413.908 208.814C413.844 208.805 413.778 208.81 413.716 208.828C413.653 208.845 413.595 208.875 413.544 208.916C413.493 208.956 413.451 209.006 413.42 209.063C413.389 209.12 413.369 209.183 413.363 209.248C413.297 209.618 413.325 209.999 413.445 210.356C413.565 210.713 413.772 211.034 414.049 211.289C414.606 211.798 415.255 212.196 415.961 212.462C416.782 212.868 417.667 213.126 418.577 213.225C420.378 213.342 422.032 212.345 423.739 211.764C426.038 210.99 428.513 210.966 430.941 210.972C433.37 210.978 435.833 211.013 438.162 210.333C440.49 209.652 442.701 208.145 443.611 205.898C443.718 205.689 443.753 205.45 443.71 205.218C443.62 204.971 443.445 204.763 443.218 204.631C439.945 202.209 438.619 199.264 434.936 197.522L434.713 197.382Z" fill="black"/>
<path d="M503.397 134.826C502.486 134.238 501.454 133.868 500.378 133.743C499.302 133.618 498.212 133.741 497.191 134.104C495.148 134.84 493.314 136.062 491.848 137.665C490.384 139.157 489.116 140.831 488.076 142.644C487.079 144.404 486.317 146.246 485.319 148C483.56 151.138 481.261 153.906 478.95 156.651C477.513 158.358 476.058 160.089 474.216 161.344C472.374 162.599 470.316 163.367 469.066 165.109C468.673 165.661 468.392 166.283 468.005 166.84C466.779 168.635 464.697 169.597 462.884 170.799C457.688 174.26 454.456 180.02 449.599 183.944C447.505 185.633 445.141 186.959 443.083 188.683C441.165 190.284 439.563 192.202 437.651 193.845C435.739 195.487 433.493 196.842 431 196.995C432.666 200.708 434.654 204.35 437.511 207.242C440.367 210.133 444.649 211.981 448.549 210.849C449.933 210.45 451.288 209.606 451.816 208.268C451.982 207.581 452.214 206.911 452.508 206.268C452.9 205.752 453.409 205.336 453.992 205.054C469.65 195.914 484.575 185.573 498.634 174.125C502.405 171.051 506.147 168.3 510.019 165.326C511.407 164.342 512.69 163.218 513.849 161.971C515.463 160.043 516.472 157.681 516.747 155.182C517.023 152.682 516.553 150.157 515.397 147.923C514.359 146.215 513.17 144.603 511.843 143.108C509.429 139.965 506.586 137.177 503.397 134.826Z" fill="#4CAF50"/>
<path opacity="0.1" d="M503.397 134.826C502.486 134.238 501.454 133.868 500.378 133.743C499.302 133.618 498.212 133.741 497.191 134.104C495.148 134.84 493.314 136.062 491.848 137.665C490.384 139.157 489.116 140.831 488.076 142.644C487.079 144.404 486.317 146.246 485.319 148C483.56 151.138 481.261 153.906 478.95 156.651C477.513 158.358 476.058 160.089 474.216 161.344C472.374 162.599 470.316 163.367 469.066 165.109C468.673 165.661 468.392 166.283 468.005 166.84C466.779 168.635 464.697 169.597 462.884 170.799C457.688 174.26 454.456 180.02 449.599 183.944C447.505 185.633 445.141 186.959 443.083 188.683C441.165 190.284 439.563 192.202 437.651 193.845C435.739 195.487 433.493 196.842 431 196.995C432.666 200.708 434.654 204.35 437.511 207.242C440.367 210.133 444.649 211.981 448.549 210.849C449.933 210.45 451.288 209.606 451.816 208.268C451.982 207.581 452.214 206.911 452.508 206.268C452.9 205.752 453.409 205.336 453.992 205.054C469.65 195.914 484.575 185.573 498.634 174.125C502.405 171.051 506.147 168.3 510.019 165.326C511.407 164.342 512.69 163.218 513.849 161.971C515.463 160.043 516.472 157.681 516.747 155.182C517.023 152.682 516.553 150.157 515.397 147.923C514.359 146.215 513.17 144.603 511.843 143.108C509.429 139.965 506.586 137.177 503.397 134.826Z" fill="black"/>
<path d="M478.193 352.42C477.167 353.007 475.906 353.335 475.184 354.285C474.95 354.59 474.791 354.948 474.539 355.241C473.759 356.156 472.375 356.197 471.29 356.719C470.422 357.13 469.718 357.893 468.797 358.133C468.246 358.264 467.678 358.307 467.114 358.262L461.412 358.092C459.606 358.039 457.488 358.133 456.438 359.605C456.097 360.145 455.855 360.741 455.723 361.365C455.283 363.048 454.925 364.955 455.846 366.433C456.949 368.193 459.365 368.55 461.448 368.668C469.491 369.113 477.557 368.956 485.578 368.198C486.663 368.06 487.758 368.015 488.851 368.063C489.719 368.134 490.569 368.327 491.426 368.474C495.748 369.207 500.171 368.779 504.535 368.345C505.272 368.31 505.999 368.155 506.687 367.888C507.03 367.748 507.333 367.527 507.571 367.244C507.809 366.961 507.975 366.624 508.054 366.263C508.236 365.054 507.104 364.028 506.981 362.814C506.893 361.957 507.303 361.001 506.834 360.274C506.658 360.06 506.462 359.863 506.247 359.687C505.461 358.872 505.233 357.681 505.039 356.567L504.013 350.543C503.984 350.118 503.81 349.717 503.52 349.405C503.304 349.25 503.055 349.147 502.793 349.106C498.323 348.097 493.742 349.018 489.302 349.581C487.017 349.916 484.706 350.032 482.399 349.927C481.402 349.863 481.014 349.745 480.27 350.396C479.525 351.047 479.126 351.875 478.193 352.42Z" fill="#3F3D56"/>
<path d="M586.122 359.67C585.338 360.108 584.497 360.438 583.624 360.649C581.32 361.322 579.021 362.024 576.726 362.755C576.115 362.906 575.542 363.182 575.042 363.565C574.245 364.268 574.039 365.418 573.981 366.497C573.905 367.092 573.975 367.696 574.186 368.257C574.461 368.783 574.865 369.231 575.359 369.559C577.987 371.548 581.418 372.163 584.714 372.163C588.011 372.163 591.284 371.606 594.58 371.518C598.563 371.413 602.651 371.976 606.481 370.861C607.212 370.591 607.972 370.406 608.745 370.31C609.259 370.302 609.773 370.335 610.282 370.41C612.336 370.613 614.41 370.424 616.393 369.852C616.99 369.72 617.546 369.444 618.012 369.049C618.243 368.849 618.408 368.584 618.485 368.289C618.563 367.994 618.549 367.682 618.446 367.395C618.235 366.92 617.695 366.574 617.69 366.052C617.717 365.801 617.783 365.556 617.883 365.324C618.124 364.521 617.737 363.682 617.467 362.89C616.71 360.626 616.833 358.022 615.478 356.057C614.123 354.092 611.637 353.282 609.273 352.971C607.352 352.7 605.398 352.756 603.495 353.136C601.355 353.593 599.354 354.549 597.255 355.159C594.818 355.86 592.272 356.101 589.747 355.869C588.069 355.728 588.644 355.992 588.075 357.4C587.672 358.339 586.99 359.131 586.122 359.67Z" fill="#3F3D56"/>
<path d="M492.399 131.834C501.793 131.834 509.409 124.218 509.409 114.824C509.409 105.43 501.793 97.814 492.399 97.814C483.005 97.814 475.39 105.43 475.39 114.824C475.39 124.218 483.005 131.834 492.399 131.834Z" fill="#FBBEBE"/>
<path d="M615.713 353.587C610.434 358.121 603.308 360.104 596.357 360.174C593.425 360.204 590.381 359.887 587.882 358.368C587.706 357.406 587.636 356.367 587.46 355.405C584.427 354.772 582.075 352.303 580.609 349.569C579.142 346.836 578.398 343.798 577.307 340.9C575.641 336.489 573.201 332.424 570.761 328.389C568.52 324.67 566.274 320.939 563.722 317.426C562.033 315.08 560.203 312.874 558.532 310.534C553.796 304.019 550.397 296.631 548.531 288.796C548.246 287.294 547.84 285.817 547.317 284.38C546.308 281.928 544.46 279.933 543.035 277.699C541.498 275.287 540.444 272.6 539.932 269.786C539.645 268.191 539.152 266.466 537.551 266.302C534.184 272.842 530.753 279.488 525.662 284.808C524.862 285.576 524.13 286.412 523.474 287.306C522.948 288.175 522.478 289.076 522.066 290.005C521.277 291.669 520.227 293.198 518.958 294.533C517.894 295.671 516.491 296.436 514.958 296.715C516.088 302.351 515.415 308.2 513.034 313.432C512.324 314.98 511.474 316.458 510.805 318.024C508.072 324.476 508.705 331.756 508.418 338.753C508.393 340.22 508.22 341.68 507.902 343.111C507.192 345.974 505.725 349.018 506.435 351.88C499.08 354.69 490.909 354.514 483.12 353.329C481.597 353.19 480.118 352.741 478.774 352.009C477.669 351.227 476.705 350.263 475.923 349.159C475.622 348.837 475.399 348.449 475.272 348.027C474.967 346.689 476.445 345.68 477.132 344.507C477.818 343.334 477.941 341.475 476.997 340.513C477.466 332.835 479.589 325.339 480.059 317.637C480.246 314.587 480.17 311.525 480.311 308.469C480.452 305.413 480.78 302.44 481.12 299.436C481.894 292.58 483.771 285.858 483.507 278.966C483.427 276.844 483.915 274.74 484.921 272.871C485.769 271.451 486.73 270.101 487.795 268.836C491.396 264.184 495.725 259.521 497.009 253.779C497.672 250.817 499.139 248.107 500.593 245.444C501.455 243.854 502.353 242.23 503.725 241.062C504.472 240.546 505.166 239.956 505.796 239.303C506.758 238.065 506.793 236.37 507.362 234.892C507.655 234.129 508.107 233.425 508.324 232.639C508.503 231.771 508.591 230.887 508.588 230C508.775 227.161 509.866 224.416 511.016 221.818C508.312 220.252 505.925 218.195 503.978 215.753C503.323 214.959 502.753 214.1 502.277 213.189C501.068 210.808 500.793 208.092 500.224 205.482C498.869 199.253 495.754 193.393 495.32 187.029C495.191 185.087 495.32 183.081 494.646 181.245C494.334 180.469 493.97 179.714 493.555 178.987C493.146 178.273 492.834 177.508 492.628 176.711C492.253 174.981 492.769 173.192 492.628 171.432C492.487 169.878 491.824 168.423 491.496 166.904C491.161 164.928 491.103 162.914 491.326 160.921C491.473 158.575 491.983 156.153 491.783 153.836C491.46 150.002 491.949 146.143 493.217 142.511C494.485 138.878 496.505 135.554 499.144 132.755L499.279 132.62C500.4 131.447 501.626 130.409 502.634 129.165C504.007 127.499 504.981 125.54 506.429 123.921C507.063 123.2 507.778 122.555 508.406 121.827C508.982 121.065 509.619 120.35 510.312 119.692C510.663 119.367 511.088 119.132 511.55 119.008C512.012 118.884 512.497 118.876 512.963 118.983C513.081 119.857 513.355 120.704 513.773 121.481C514.993 121.575 516.078 121.745 517.292 121.839C517.855 121.866 518.413 121.952 518.958 122.097C520.102 122.443 521.017 123.27 521.996 123.98C524.436 125.699 527.433 126.496 529.832 128.268C533.351 130.878 535.111 135.189 537.234 139.055C540.044 144.234 544.625 148.639 546.619 154.176L549.37 161.707C551.17 166.623 552.971 171.556 555.411 176.189C558.807 182.641 563.406 188.454 566.133 195.205C566.406 195.883 566.911 196.44 567.558 196.777C571.272 201.986 574.573 207.477 577.43 213.201C578.937 216.228 580.362 219.372 580.797 222.721C581.436 227.454 580.145 232.241 578.351 236.663C578.061 237.296 577.863 237.968 577.764 238.658C577.647 239.778 578.075 240.881 578.192 242.001C578.306 243.047 578.15 244.105 577.741 245.074C577.376 245.756 577.068 246.466 576.82 247.198C576.503 248.547 577.066 249.919 577.371 251.268C578.403 255.838 578.216 260.571 577.958 265.252C577.823 267.598 579.717 269.458 581.295 271.176C584.228 274.396 586.515 278.162 588.727 281.922C589.929 283.829 590.942 285.848 591.753 287.952C592.592 290.351 592.926 292.89 593.39 295.383C594.879 303.073 599.759 309.871 601.085 317.584C601.699 321.118 603.264 324.417 605.613 327.128C606.321 327.861 606.974 328.645 607.566 329.474C607.971 330.132 608.294 330.837 608.528 331.574C609.105 333.286 609.377 335.087 609.332 336.894C609.239 337.758 609.288 338.632 609.478 339.481C610.03 341.27 612 342.255 612.81 343.938C613.619 345.622 613.062 347.78 613.396 349.692C613.649 351.237 614.477 352.628 615.713 353.587Z" fill="#4CAF50"/>
<path d="M438.232 192.103C436.309 193.088 434.261 194.097 432.109 193.956C430.173 193.833 428.408 192.783 426.953 191.499C425.78 190.478 424.572 189.205 423.029 189.311C421.997 189.381 421.129 190.079 420.331 190.742L416.079 194.302C415.363 194.784 414.822 195.483 414.536 196.297C414.452 196.849 414.486 197.413 414.636 197.951C414.829 198.901 415.152 200.01 416.067 200.332C416.982 200.655 417.979 199.963 418.947 199.699C419.538 199.548 420.159 199.559 420.744 199.731C421.33 199.904 421.858 200.231 422.273 200.678C422.618 201.018 422.827 201.473 422.859 201.957C422.859 203.019 421.686 203.717 420.607 203.769C419.528 203.822 418.495 203.47 417.428 203.535C417.363 203.527 417.298 203.531 417.235 203.549C417.173 203.566 417.114 203.596 417.064 203.637C417.013 203.677 416.971 203.727 416.939 203.785C416.908 203.842 416.889 203.904 416.882 203.969C416.816 204.339 416.844 204.721 416.964 205.077C417.084 205.434 417.292 205.755 417.569 206.01C418.126 206.519 418.775 206.917 419.481 207.183C420.301 207.589 421.187 207.847 422.097 207.946C423.897 208.063 425.551 207.066 427.258 206.485C429.557 205.711 432.033 205.687 434.461 205.693C436.889 205.699 439.353 205.734 441.681 205.054C444.01 204.374 446.221 202.866 447.13 200.62C447.238 200.41 447.273 200.171 447.23 199.939C447.139 199.692 446.965 199.485 446.737 199.353C443.464 196.93 442.139 193.986 438.455 192.244L438.232 192.103Z" fill="#FBBEBE"/>
<path d="M484.123 104.372C483.109 104.536 482.246 105.222 481.285 105.603C480.639 105.854 479.947 105.965 479.256 105.929C478.564 105.892 477.888 105.71 477.273 105.392C476.843 105.184 476.468 104.879 476.176 104.501C475.39 103.41 475.665 101.826 476.146 100.547C478.422 94.5 484.499 90.7578 490.517 90.5173C496.535 90.2768 502.388 93.0864 507.133 97.1043C508.545 98.2636 509.811 99.589 510.905 101.052C513.38 104.483 514.5 108.865 514.829 113.205C515.025 115.027 514.904 116.868 514.471 118.648C514.263 119.513 513.882 120.328 513.352 121.042C512.822 121.757 512.153 122.357 511.386 122.807C509.708 123.663 507.696 123.394 506.001 122.573C504.306 121.751 502.852 120.455 501.397 119.217C500.738 118.582 499.958 118.085 499.104 117.757C498.677 117.605 498.217 117.58 497.776 117.684C497.336 117.788 496.936 118.017 496.623 118.343C495.837 119.288 496.036 120.836 495.32 121.863C494.605 122.889 493.115 123.036 491.86 123.036C490.605 123.036 489.332 122.93 488.581 121.933C487.895 121.03 487.995 119.71 488.253 118.572C488.511 117.434 488.951 116.308 488.839 115.141C488.599 112.795 486.546 111.352 485.906 109.193C485.49 107.78 486.405 107.181 486.311 105.903C486.241 104.776 485.033 104.225 484.123 104.372Z" fill="#3F3D56"/>
<path opacity="0.1" d="M537.562 266.155V266.302C534.196 272.842 530.764 279.488 525.673 284.808C524.873 285.576 524.141 286.412 523.486 287.306C522.96 288.175 522.49 289.076 522.078 290.005C521.288 291.669 520.239 293.198 518.969 294.533L514.723 296.656L528.213 226.27L537.562 266.155Z" fill="black"/>
<path opacity="0.1" d="M517.955 159.625C516.796 160.872 515.513 161.996 514.125 162.98C510.254 165.913 506.5 168.682 502.74 171.779C499.71 174.246 496.636 176.663 493.52 179.028C493.111 178.314 492.799 177.549 492.593 176.753C492.218 175.022 492.734 173.233 492.593 171.474C492.452 169.919 491.79 168.465 491.461 166.945C491.126 164.969 491.069 162.955 491.291 160.962C491.438 158.616 491.948 156.194 491.749 153.877C491.424 150.034 491.915 146.166 493.19 142.526C494.464 138.886 496.494 135.556 499.145 132.755L499.28 132.62C499.911 132.253 500.579 131.954 501.274 131.729C502.297 131.37 503.388 131.251 504.464 131.381C505.54 131.511 506.572 131.887 507.48 132.479C510.669 134.831 513.512 137.619 515.926 140.762C517.253 142.257 518.442 143.869 519.48 145.577C520.639 147.808 521.113 150.332 520.841 152.832C520.57 155.331 519.566 157.695 517.955 159.625Z" fill="black"/>
<path d="M506.916 129.547C506.006 128.959 504.973 128.589 503.897 128.464C502.821 128.338 501.731 128.462 500.71 128.825C498.667 129.561 496.833 130.783 495.367 132.385C493.903 133.878 492.636 135.552 491.596 137.365C490.598 139.125 489.836 140.967 488.839 142.721C487.079 145.859 484.78 148.627 482.469 151.372C481.032 153.079 479.577 154.809 477.736 156.065C475.894 157.32 473.835 158.088 472.586 159.83C472.193 160.382 471.911 161.004 471.524 161.561C470.298 163.356 468.216 164.318 466.404 165.52C461.207 168.981 457.975 174.741 453.119 178.665C451.025 180.354 448.661 181.68 446.602 183.404C444.684 185.005 443.083 186.923 441.171 188.566C439.259 190.208 437.012 191.563 434.52 191.716C436.185 195.428 438.174 199.071 441.03 201.963C443.887 204.854 448.168 206.702 452.069 205.57C453.453 205.171 454.808 204.326 455.336 202.989C455.502 202.302 455.734 201.632 456.028 200.989C456.42 200.473 456.928 200.057 457.512 199.775C473.17 190.635 488.095 180.294 502.153 168.846C505.925 165.772 509.667 163.021 513.538 160.047C514.926 159.063 516.209 157.939 517.368 156.692C518.983 154.764 519.991 152.402 520.266 149.902C520.542 147.403 520.072 144.878 518.917 142.644C517.879 140.936 516.689 139.324 515.362 137.829C512.948 134.686 510.105 131.898 506.916 129.547Z" fill="#4CAF50"/>
<g opacity="0.1">
<path opacity="0.1" d="M493.033 120.672C491.86 120.672 490.505 120.566 489.754 119.569C489.074 118.666 489.168 117.346 489.426 116.208C489.684 115.07 490.124 113.944 490.012 112.777C489.772 110.431 487.719 108.988 487.08 106.829C486.663 105.416 487.578 104.817 487.484 103.539C487.402 102.43 486.2 101.879 485.291 102.025C484.276 102.19 483.414 102.876 482.452 103.257C481.806 103.508 481.115 103.619 480.423 103.582C479.732 103.546 479.056 103.363 478.44 103.046C478.01 102.837 477.635 102.532 477.343 102.154C476.557 101.063 476.833 99.4798 477.314 98.2011C477.314 98.1542 477.355 98.1131 477.372 98.0662C476.882 98.851 476.469 99.682 476.141 100.547C475.66 101.826 475.384 103.41 476.17 104.501C476.462 104.878 476.837 105.184 477.267 105.392C477.882 105.709 478.558 105.892 479.25 105.929C479.942 105.965 480.633 105.854 481.279 105.603C482.241 105.222 483.103 104.536 484.118 104.372C485.027 104.225 486.229 104.776 486.311 105.885C486.405 107.164 485.49 107.762 485.906 109.176C486.534 111.334 488.587 112.8 488.839 115.123C488.956 116.296 488.528 117.422 488.253 118.555C487.977 119.687 487.901 121.012 488.581 121.915C489.332 122.913 490.675 123.006 491.86 123.018C493.045 123.03 494.57 122.948 495.32 121.845C495.644 121.291 495.858 120.68 495.948 120.044C495.15 120.613 494.036 120.684 493.033 120.672Z" fill="black"/>
<path opacity="0.1" d="M512.559 120.461C510.881 121.317 508.87 121.048 507.174 120.226C505.479 119.405 504.025 118.109 502.57 116.871C501.911 116.236 501.131 115.739 500.277 115.411C499.851 115.259 499.39 115.234 498.95 115.338C498.509 115.442 498.109 115.671 497.796 115.997C497.397 116.586 497.146 117.262 497.062 117.968C497.368 117.788 497.708 117.676 498.06 117.639C498.412 117.601 498.768 117.64 499.104 117.751C499.958 118.08 500.738 118.576 501.397 119.212C502.852 120.449 504.33 121.751 506.001 122.567C507.673 123.382 509.708 123.658 511.386 122.801C512.869 121.933 513.951 120.514 514.395 118.854C513.913 119.522 513.285 120.072 512.559 120.461Z" fill="black"/>
</g>
<path d="M366.586 372.615C376.304 372.615 384.183 364.737 384.183 355.019C384.183 345.3 376.304 337.422 366.586 337.422C356.868 337.422 348.99 345.3 348.99 355.019C348.99 364.737 356.868 372.615 366.586 372.615Z" fill="#3F3D56"/>
<path opacity="0.1" d="M366.586 372.615C376.304 372.615 384.183 364.737 384.183 355.019C384.183 345.3 376.304 337.422 366.586 337.422C356.868 337.422 348.99 345.3 348.99 355.019C348.99 364.737 356.868 372.615 366.586 372.615Z" fill="black"/>
<path d="M366.587 366.163C372.741 366.163 377.731 361.174 377.731 355.019C377.731 348.864 372.741 343.874 366.587 343.874C360.432 343.874 355.442 348.864 355.442 355.019C355.442 361.174 360.432 366.163 366.587 366.163Z" fill="#65617D"/>
<path opacity="0.1" d="M366.587 366.163C372.741 366.163 377.731 361.174 377.731 355.019C377.731 348.864 372.741 343.874 366.587 343.874C360.432 343.874 355.442 348.864 355.442 355.019C355.442 361.174 360.432 366.163 366.587 366.163Z" fill="black"/>
<path d="M353.096 327.45L364.639 353.552C364.811 353.943 365.091 354.277 365.446 354.515C365.802 354.752 366.218 354.882 366.645 354.891C367.072 354.9 367.493 354.786 367.858 354.563C368.223 354.341 368.516 354.018 368.703 353.634L382.423 325.691L353.096 327.45Z" fill="#3F3D56"/>
<path opacity="0.1" d="M353.096 327.45L364.639 353.552C364.811 353.943 365.091 354.277 365.446 354.515C365.802 354.752 366.218 354.882 366.645 354.891C367.072 354.9 367.493 354.786 367.858 354.563C368.223 354.341 368.516 354.018 368.703 353.634L382.423 325.691L353.096 327.45Z" fill="black"/>
<path d="M256.904 372.615C266.622 372.615 274.5 364.737 274.5 355.019C274.5 345.3 266.622 337.422 256.904 337.422C247.186 337.422 239.308 345.3 239.308 355.019C239.308 364.737 247.186 372.615 256.904 372.615Z" fill="#3F3D56"/>
<path opacity="0.1" d="M256.904 372.615C266.622 372.615 274.5 364.737 274.5 355.019C274.5 345.3 266.622 337.422 256.904 337.422C247.186 337.422 239.308 345.3 239.308 355.019C239.308 364.737 247.186 372.615 256.904 372.615Z" fill="black"/>
<path d="M256.904 366.163C263.059 366.163 268.048 361.174 268.048 355.019C268.048 348.864 263.059 343.874 256.904 343.874C250.749 343.874 245.76 348.864 245.76 355.019C245.76 361.174 250.749 366.163 256.904 366.163Z" fill="#65617D"/>
<path opacity="0.1" d="M256.904 366.163C263.059 366.163 268.048 361.174 268.048 355.019C268.048 348.864 263.059 343.874 256.904 343.874C250.749 343.874 245.76 348.864 245.76 355.019C245.76 361.174 250.749 366.163 256.904 366.163Z" fill="black"/>
<path d="M243.413 327.45L254.956 353.552C255.128 353.943 255.408 354.277 255.764 354.515C256.119 354.752 256.535 354.882 256.962 354.891C257.39 354.9 257.81 354.786 258.175 354.563C258.54 354.341 258.833 354.018 259.021 353.634L272.74 325.691L243.413 327.45Z" fill="#3F3D56"/>
<path opacity="0.1" d="M243.413 327.45L254.956 353.552C255.128 353.943 255.408 354.277 255.764 354.515C256.119 354.752 256.535 354.882 256.962 354.891C257.39 354.9 257.81 354.786 258.175 354.563C258.54 354.341 258.833 354.018 259.021 353.634L272.74 325.691L243.413 327.45Z" fill="black"/>
<path d="M423.692 201.781C423.644 201.337 423.485 200.912 423.23 200.545C422.975 200.178 422.632 199.881 422.232 199.681C421.895 199.538 421.533 199.463 421.167 199.463C420.801 199.462 420.439 199.535 420.102 199.677C419.765 199.82 419.46 200.028 419.205 200.291C418.95 200.554 418.751 200.865 418.619 201.206L408.524 226.27L405.592 338.888H410.284L412.044 226.51L423.446 203.482C423.705 202.955 423.792 202.36 423.692 201.781Z" fill="#3F3D56"/>
<path d="M216.14 330.09L231.976 320.118L402.952 318.652L407.351 330.09H216.14Z" fill="#4CAF50"/>
<path d="M216.14 340.648V330.09L410.448 328.213L410.26 335.369H219.659V340.648H216.14Z" fill="#3F3D56"/>
<path d="M240.774 378.774C250.492 378.774 258.37 370.896 258.37 361.177C258.37 351.459 250.492 343.581 240.774 343.581C231.056 343.581 223.178 351.459 223.178 361.177C223.178 370.896 231.056 378.774 240.774 378.774Z" fill="#3F3D56"/>
<path d="M240.774 372.322C246.929 372.322 251.918 367.332 251.918 361.177C251.918 355.022 246.929 350.033 240.774 350.033C234.619 350.033 229.63 355.022 229.63 361.177C229.63 367.332 234.619 372.322 240.774 372.322Z" fill="#65617D"/>
<path d="M227.283 333.609L238.826 359.711C238.998 360.102 239.278 360.436 239.634 360.673C239.989 360.911 240.405 361.041 240.832 361.05C241.26 361.059 241.681 360.945 242.045 360.722C242.41 360.499 242.703 360.177 242.891 359.793L256.61 331.85L227.283 333.609Z" fill="#3F3D56"/>
<path d="M377.438 378.774C387.156 378.774 395.034 370.896 395.034 361.177C395.034 351.459 387.156 343.581 377.438 343.581C367.72 343.581 359.842 351.459 359.842 361.177C359.842 370.896 367.72 378.774 377.438 378.774Z" fill="#3F3D56"/>
<path d="M377.437 372.322C383.592 372.322 388.581 367.332 388.581 361.177C388.581 355.022 383.592 350.033 377.437 350.033C371.282 350.033 366.293 355.022 366.293 361.177C366.293 367.332 371.282 372.322 377.437 372.322Z" fill="#65617D"/>
<path d="M363.947 333.609L375.49 359.711C375.662 360.102 375.942 360.436 376.298 360.673C376.653 360.911 377.069 361.041 377.496 361.05C377.924 361.059 378.345 360.945 378.709 360.722C379.074 360.499 379.368 360.177 379.555 359.793L393.274 331.85L363.947 333.609Z" fill="#3F3D56"/>
<path d="M311.452 284.045H238.135V324.518H311.452V284.045Z" fill="#65617D"/>
<path opacity="0.1" d="M286.231 291.084H263.942V295.776H286.231V291.084Z" fill="black"/>
<path opacity="0.1" d="M283.445 291.67H266.729V295.19H283.445V291.67Z" fill="black"/>
<path d="M385.942 284.045H312.625V324.518H385.942V284.045Z" fill="#65617D"/>
<path opacity="0.1" d="M360.721 291.084H338.433V295.776H360.721V291.084Z" fill="black"/>
<path opacity="0.1" d="M357.935 291.67H341.219V295.19H357.935V291.67Z" fill="black"/>
<path d="M311.452 242.4H238.135V282.872H311.452V242.4Z" fill="#65617D"/>
<path opacity="0.1" d="M286.231 249.438H263.942V254.131H286.231V249.438Z" fill="black"/>
<path opacity="0.1" d="M283.445 250.025H266.729V253.544H283.445V250.025Z" fill="black"/>
<path d="M385.942 242.4H312.625V282.872H385.942V242.4Z" fill="#65617D"/>
<path opacity="0.1" d="M360.721 249.438H338.433V254.131H360.721V249.438Z" fill="black"/>
<path opacity="0.1" d="M357.935 250.025H341.219V253.544H357.935V250.025Z" fill="black"/>
<path d="M311.452 200.168H238.135V240.64H311.452V200.168Z" fill="#65617D"/>
<path opacity="0.1" d="M286.231 207.207H263.942V211.899H286.231V207.207Z" fill="black"/>
<path opacity="0.1" d="M283.445 207.793H266.729V211.312H283.445V207.793Z" fill="black"/>
<path d="M385.942 200.168H312.625V240.64H385.942V200.168Z" fill="#65617D"/>
<path opacity="0.1" d="M360.721 207.207H338.433V211.899H360.721V207.207Z" fill="black"/>
<path opacity="0.1" d="M357.935 207.793H341.219V211.312H357.935V207.793Z" fill="black"/>
<path d="M385.942 157.936H312.625V198.408H385.942V157.936Z" fill="#65617D"/>
<path opacity="0.1" d="M360.721 164.975H338.433V169.667H360.721V164.975Z" fill="black"/>
<path opacity="0.1" d="M357.935 165.561H341.219V169.08H357.935V165.561Z" fill="black"/>
</g>
<defs>
<linearGradient id="paint0_linear" x1="514.881" y1="372.111" x2="514.881" y2="88.7223" gradientUnits="userSpaceOnUse">
<stop stop-color="#808080" stop-opacity="0.25"/>
<stop offset="0.54" stop-color="#808080" stop-opacity="0.12"/>
<stop offset="1" stop-color="#808080" stop-opacity="0.1"/>
</linearGradient>
<clipPath id="clip0">
<rect width="671" height="382" fill="white"/>
</clipPath>
</defs>
</svg>
