<svg width="486" height="402" viewBox="0 0 486 402" fill="none" xmlns="http://www.w3.org/2000/svg">
<g clip-path="url(#clip0)">
<g opacity="0.5">
<path opacity="0.5" d="M268.325 0.0130505L222.94 290.919L440.648 322.686L486.033 31.7796L268.325 0.0130505Z" fill="url(#paint0_linear)"/>
</g>
<path d="M270.764 2.56118L226.382 287.036L438.55 317.995L482.932 33.5195L270.764 2.56118Z" fill="#F5F5F5"/>
<path d="M432.9 152.396L279.769 130.052L278.369 139.029L431.499 161.372L432.9 152.396Z" fill="#E0E0E0"/>
<path d="M429.399 174.832L276.269 152.488L274.868 161.464L427.999 183.808L429.399 174.832Z" fill="#E0E0E0"/>
<path d="M444.099 80.592L365.212 69.0813L363.811 78.0577L442.699 89.5684L444.099 80.592Z" fill="#E0E0E0"/>
<path d="M433.642 102.018L368.674 92.5386L367.274 101.515L432.241 110.995L433.642 102.018Z" fill="#EB6A2C"/>
<path d="M407.337 194.563L272.765 174.927L271.364 183.904L405.937 203.54L407.337 194.563Z" fill="#E0E0E0"/>
<path d="M385.27 214.294L269.261 197.367L267.861 206.343L383.87 223.27L385.27 214.294Z" fill="#E0E0E0"/>
<path d="M367.85 234.701L265.761 219.804L264.361 228.781L366.45 243.677L367.85 234.701Z" fill="#E0E0E0"/>
<path d="M392.19 261.202L262.261 242.243L260.861 251.22L390.79 270.178L392.19 261.202Z" fill="#E0E0E0"/>
<path d="M309.806 272.127L258.765 264.68L257.364 273.656L308.406 281.104L309.806 272.127Z" fill="#4CAF50"/>
<g opacity="0.5">
<path opacity="0.5" d="M350.26 81.4277C351.066 76.2565 350.474 70.9717 348.541 66.0875C346.609 61.2033 343.401 56.8861 339.232 53.5561C335.062 50.2261 330.073 47.9968 324.748 47.085C319.423 46.1733 313.945 46.6102 308.847 48.3532C303.748 50.0963 299.204 53.086 295.654 57.0316C292.105 60.9772 289.673 65.7441 288.594 70.8685C287.515 75.9929 287.826 81.3002 289.497 86.2738C291.168 91.2474 294.142 95.718 298.129 99.2504C298.129 99.2934 298.129 99.3418 298.129 99.3847C298.993 100.475 300.071 101.388 301.303 102.072L301.364 101.943C302.625 103.357 308.433 106.173 315.452 107.178H315.608C320.054 107.834 324.995 107.775 329.58 106.173C329.58 106.173 329.63 106.098 329.713 105.958C330.865 105.626 331.953 105.116 332.937 104.448L333.037 104.115C337.593 101.965 341.541 98.7774 344.542 94.8255C347.542 90.8735 349.504 86.2756 350.26 81.4277Z" fill="url(#paint1_linear)"/>
</g>
<path d="M349.192 80.1892C351.695 64.1425 340.273 49.1715 323.681 46.7504C307.088 44.3293 291.608 55.375 289.104 71.4216C286.601 87.4682 298.022 102.439 314.615 104.86C331.208 107.281 346.688 96.2358 349.192 80.1892Z" fill="#F5F5F5"/>
<g opacity="0.5">
<path opacity="0.5" d="M218.153 41.8109L0.182617 75.8792L48.8561 367.136L266.826 333.067L218.153 41.8109Z" fill="url(#paint2_linear)"/>
</g>
<path d="M214.875 43.5113L3.13184 77.0813L51.2577 360.987L263.001 327.417L214.875 43.5113Z" fill="#F5F5F5"/>
<path d="M205.06 171.478L52.2358 195.707L53.7544 204.665L206.578 180.436L205.06 171.478Z" fill="#E0E0E0"/>
<path d="M208.856 193.873L56.0317 218.102L57.5503 227.06L210.374 202.831L208.856 193.873Z" fill="#E0E0E0"/>
<path d="M192.918 99.8202L114.189 112.302L115.708 121.26L194.437 108.779L192.918 99.8202Z" fill="#E0E0E0"/>
<path d="M189.765 123.317L124.928 133.596L126.446 142.554L191.283 132.275L189.765 123.317Z" fill="#EB6A2C"/>
<path d="M194.13 219.203L59.8271 240.495L61.3457 249.454L195.649 228.161L194.13 219.203Z" fill="#E0E0E0"/>
<path d="M179.399 244.528L63.6226 262.884L65.1411 271.842L180.918 253.487L179.399 244.528Z" fill="#E0E0E0"/>
<path d="M169.303 269.128L67.4185 285.281L68.937 294.24L170.822 278.087L169.303 269.128Z" fill="#E0E0E0"/>
<path d="M200.884 287.112L71.2148 307.67L72.7334 316.628L202.402 296.071L200.884 287.112Z" fill="#E0E0E0"/>
<path d="M125.954 321.99L75.0146 330.066L76.5332 339.025L127.473 330.949L125.954 321.99Z" fill="#EB6A2C"/>
<g opacity="0.5">
<path opacity="0.5" d="M106.729 126.554C105.829 121.249 103.524 116.26 100.039 112.072C96.5534 107.883 92.0063 104.639 86.8399 102.655C81.6735 100.67 76.0638 100.013 70.5569 100.747C65.0499 101.481 59.8332 103.581 55.4145 106.843C50.9957 110.105 47.5254 114.418 45.3414 119.361C43.1573 124.305 42.3338 129.712 42.9511 135.054C43.5684 140.397 45.6054 145.495 48.8638 149.85C52.1223 154.206 56.4912 157.672 61.5454 159.91L61.5899 160.044C62.7909 160.842 64.1434 161.401 65.5692 161.689V161.544C67.2643 162.544 73.8668 163.527 81.0639 162.366H81.2195C85.7824 161.651 90.5953 160.082 94.5579 157.115C94.5579 157.115 94.5579 157.029 94.6135 156.868C95.6322 156.191 96.5311 155.36 97.2756 154.406C97.2756 154.284 97.2756 154.166 97.2756 154.052C101.04 150.554 103.868 146.223 105.515 141.432C107.162 136.642 107.579 131.535 106.729 126.554Z" fill="url(#paint3_linear)"/>
</g>
<path d="M80.0129 161.39C97.0357 158.691 108.573 143.158 105.783 126.695C102.992 110.232 86.9299 99.0747 69.9071 101.774C52.8842 104.472 41.3467 120.006 44.1374 136.468C46.928 152.931 62.99 164.089 80.0129 161.39Z" fill="#F5F5F5"/>
<g opacity="0.5">
<path opacity="0.5" d="M377.248 88.9363H157.076V383.135H377.248V88.9363Z" fill="url(#paint4_linear)"/>
</g>
<path d="M374.447 91.1023H159.877V378.797H374.447V91.1023Z" fill="white"/>
<g opacity="0.5">
<path opacity="0.5" d="M188.532 156.927C188.533 151.43 190.005 146.027 192.805 141.244C195.606 136.46 199.639 132.459 204.512 129.63C209.386 126.802 214.933 125.241 220.615 125.101C226.297 124.96 231.92 126.245 236.937 128.83C241.953 131.414 246.192 135.211 249.241 139.85C252.29 144.489 254.045 149.812 254.336 155.302C254.627 160.792 253.443 166.261 250.9 171.177C248.357 176.093 244.541 180.288 239.824 183.355V183.495C238.748 184.493 237.479 185.274 236.089 185.795L236.045 185.655C234.505 186.934 228.014 188.982 220.555 188.961H220.394C215.67 188.961 210.546 188.154 206.033 185.795C206.033 185.795 205.994 185.709 205.933 185.553C204.79 185.033 203.741 184.338 202.826 183.495L202.776 183.134C198.383 180.21 194.791 176.297 192.309 171.731C189.828 167.166 188.531 162.085 188.532 156.927Z" fill="url(#paint5_linear)"/>
</g>
<path d="M221.45 187.81C239.087 187.81 253.385 173.983 253.385 156.927C253.385 139.87 239.087 126.043 221.45 126.043C203.814 126.043 189.516 139.87 189.516 156.927C189.516 173.983 203.814 187.81 221.45 187.81Z" fill="#F5F5F5"/>
<path d="M343.352 215.85H188.488V224.928H343.352V215.85Z" fill="#E0E0E0"/>
<path d="M343.352 238.543H188.488V247.621H343.352V238.543Z" fill="#E0E0E0"/>
<path d="M343.357 143.238H263.577V152.316H343.357V143.238Z" fill="#E0E0E0"/>
<path d="M336.316 165.93H270.613V175.008H336.316V165.93Z" fill="#EB6A2C"/>
<path d="M324.584 261.235H188.488V270.313H324.584V261.235Z" fill="#E0E0E0"/>
<path d="M305.81 283.927H188.488V293.005H305.81V283.927Z" fill="#E0E0E0"/>
<path d="M291.732 306.625H188.488V315.703H291.732V306.625Z" fill="#E0E0E0"/>
<path d="M319.887 329.317H188.488V338.395H319.887V329.317Z" fill="#E0E0E0"/>
<path d="M240.107 352.009H188.488V361.087H240.107V352.009Z" fill="#EB6A2C"/>
<g opacity="0.5">
<path opacity="0.5" d="M362.398 402.005C388.3 402.005 409.299 381.698 409.299 356.648C409.299 331.597 388.3 311.29 362.398 311.29C336.495 311.29 315.497 331.597 315.497 356.648C315.497 381.698 336.495 402.005 362.398 402.005Z" fill="url(#paint6_linear)"/>
</g>
<path d="M362.398 399.334C386.775 399.334 406.537 380.223 406.537 356.648C406.537 333.073 386.775 313.961 362.398 313.961C338.02 313.961 318.259 333.073 318.259 356.648C318.259 380.223 338.02 399.334 362.398 399.334Z" fill="#EB6A2C"/>
<path d="M343.241 350.951L359.791 365.624L383.239 332.279L391.52 338.949L359.791 378.964L336.344 353.622L343.241 350.951Z" fill="white"/>
</g>
<defs>
<linearGradient id="paint0_linear" x1="331.794" y1="306.802" x2="374.302" y2="15.4766" gradientUnits="userSpaceOnUse">
<stop stop-color="#808080" stop-opacity="0.25"/>
<stop offset="0.54" stop-color="#808080" stop-opacity="0.12"/>
<stop offset="1" stop-color="#808080" stop-opacity="0.1"/>
</linearGradient>
<linearGradient id="paint1_linear" x1="36708.9" y1="44562.1" x2="37704.5" y2="37738.4" gradientUnits="userSpaceOnUse">
<stop stop-color="#808080" stop-opacity="0.25"/>
<stop offset="0.54" stop-color="#808080" stop-opacity="0.12"/>
<stop offset="1" stop-color="#808080" stop-opacity="0.1"/>
</linearGradient>
<linearGradient id="paint2_linear" x1="122289" y1="96045.3" x2="97329.9" y2="-63642.8" gradientUnits="userSpaceOnUse">
<stop stop-color="#808080" stop-opacity="0.25"/>
<stop offset="0.54" stop-color="#808080" stop-opacity="0.12"/>
<stop offset="1" stop-color="#808080" stop-opacity="0.1"/>
</linearGradient>
<linearGradient id="paint3_linear" x1="25229.1" y1="-2403.08" x2="24091.7" y2="-9577.27" gradientUnits="userSpaceOnUse">
<stop stop-color="#808080" stop-opacity="0.25"/>
<stop offset="0.54" stop-color="#808080" stop-opacity="0.12"/>
<stop offset="1" stop-color="#808080" stop-opacity="0.1"/>
</linearGradient>
<linearGradient id="paint4_linear" x1="105996" y1="209805" x2="105996" y2="48770" gradientUnits="userSpaceOnUse">
<stop stop-color="#808080" stop-opacity="0.25"/>
<stop offset="0.54" stop-color="#808080" stop-opacity="0.12"/>
<stop offset="1" stop-color="#808080" stop-opacity="0.1"/>
</linearGradient>
<linearGradient id="paint5_linear" x1="33451.2" y1="27436.1" x2="33451.2" y2="19845.1" gradientUnits="userSpaceOnUse">
<stop stop-color="#808080" stop-opacity="0.25"/>
<stop offset="0.54" stop-color="#808080" stop-opacity="0.12"/>
<stop offset="1" stop-color="#808080" stop-opacity="0.1"/>
</linearGradient>
<linearGradient id="paint6_linear" x1="61481" y1="68160.8" x2="61481" y2="52850.8" gradientUnits="userSpaceOnUse">
<stop stop-color="#808080" stop-opacity="0.25"/>
<stop offset="0.54" stop-color="#808080" stop-opacity="0.12"/>
<stop offset="1" stop-color="#808080" stop-opacity="0.1"/>
</linearGradient>
<clipPath id="clip0">
<rect width="486" height="402" fill="white"/>
</clipPath>
</defs>
</svg>
