<svg width="61" height="60" viewBox="0 0 61 60" fill="none" xmlns="http://www.w3.org/2000/svg">
<rect width="61" height="60" rx="5" fill="white" fill-opacity="0.2"/>
<g clip-path="url(#clip0)">
<path d="M46.936 31.8366C46.6727 29.1956 45.5831 26.7049 43.8223 24.719C42.0615 22.7331 39.7192 21.3531 37.1287 20.7755V19.1844C37.6321 19.0593 38.0724 18.7543 38.3666 18.327C38.6607 17.8996 38.7883 17.3794 38.7253 16.8644C38.6623 16.3495 38.4131 15.8754 38.0247 15.5315C37.6363 15.1876 37.1354 14.9977 36.6167 14.9976H32.1155C31.5967 14.9977 31.0959 15.1876 30.7075 15.5315C30.3191 15.8754 30.0699 16.3495 30.0069 16.8644C29.9439 17.3794 30.0715 17.8996 30.3656 18.327C30.6598 18.7543 31.1001 19.0593 31.6035 19.1844V20.7768C29.2715 21.2964 27.1362 22.4709 25.4487 24.1624C25.0699 24.541 24.7155 24.9433 24.3875 25.3668C24.3715 25.3668 24.3562 25.3668 24.3402 25.3668H19.8858C19.802 25.3642 19.7186 25.3783 19.6404 25.4085C19.5623 25.4387 19.491 25.4843 19.4308 25.5426C19.3706 25.6009 19.3227 25.6707 19.29 25.7479C19.2573 25.8251 19.2405 25.908 19.2405 25.9918C19.2405 26.0756 19.2573 26.1585 19.29 26.2357C19.3227 26.3129 19.3706 26.3827 19.4308 26.441C19.491 26.4993 19.5623 26.5449 19.6404 26.5751C19.7186 26.6053 19.802 26.6194 19.8858 26.6168H23.5338C23.0803 27.3762 22.7085 28.1816 22.4247 29.0193H15.6253C15.463 29.0245 15.3091 29.0926 15.1961 29.2093C15.0832 29.3259 15.02 29.4819 15.02 29.6443C15.02 29.8067 15.0832 29.9627 15.1961 30.0793C15.3091 30.1959 15.463 30.264 15.6253 30.2692H22.0739C21.8942 31.0584 21.7903 31.8629 21.7635 32.6718H19C18.8377 32.677 18.6838 32.7451 18.5709 32.8617C18.4579 32.9784 18.3947 33.1344 18.3947 33.2968C18.3947 33.4591 18.4579 33.6151 18.5709 33.7318C18.6838 33.8484 18.8377 33.9165 19 33.9217H21.784C21.8369 34.7332 21.9676 35.5378 22.1744 36.3243H18.1251C17.9628 36.3295 17.8089 36.3976 17.696 36.5142C17.583 36.6309 17.5199 36.7869 17.5199 36.9492C17.5199 37.1116 17.583 37.2676 17.696 37.3843C17.8089 37.5009 17.9628 37.569 18.1251 37.5742H22.5731C23.4064 39.7698 24.8356 41.6895 26.7001 43.1173C28.5646 44.5452 30.7905 45.4246 33.1274 45.6568C33.5404 45.6994 33.9532 45.7208 34.3658 45.7208C36.811 45.7219 39.2042 45.0145 41.256 43.6843C41.3269 43.6404 41.3882 43.5829 41.4365 43.5149C41.4848 43.447 41.519 43.3702 41.5371 43.2889C41.5553 43.2075 41.557 43.1234 41.5422 43.0414C41.5274 42.9595 41.4963 42.8813 41.4508 42.8114C41.4054 42.7416 41.3464 42.6816 41.2774 42.6349C41.2084 42.5882 41.1308 42.5557 41.0491 42.5394C40.9674 42.5231 40.8833 42.5234 40.8016 42.54C40.72 42.5567 40.6425 42.5896 40.5738 42.6366C38.2171 44.1681 35.377 44.7729 32.6009 44.3345C29.8248 43.8961 27.3092 42.4455 25.5392 40.2623C23.7692 38.0791 22.8701 35.318 23.0151 32.5112C23.1602 29.7045 24.3392 27.0507 26.3248 25.0617C28.3105 23.0726 30.9621 21.8891 33.7687 21.7392C36.5752 21.5893 39.3379 22.4837 41.5241 24.25C43.7102 26.0162 45.1652 28.5293 45.6084 31.3046C46.0515 34.08 45.4516 36.9212 43.9242 39.2804C43.8767 39.3492 43.8435 39.4268 43.8266 39.5087C43.8096 39.5905 43.8092 39.6749 43.8254 39.7569C43.8417 39.8389 43.8742 39.9168 43.921 39.9861C43.9679 40.0553 44.0281 40.1144 44.0982 40.1599C44.1683 40.2055 44.2468 40.2365 44.3291 40.2511C44.4114 40.2658 44.4958 40.2638 44.5773 40.2453C44.6588 40.2268 44.7358 40.1921 44.8036 40.1434C44.8715 40.0946 44.9289 40.0327 44.9725 39.9614C46.5276 37.5534 47.2198 34.689 46.936 31.8366ZM31.2407 17.1249C31.241 16.893 31.3333 16.6707 31.4973 16.5067C31.6613 16.3427 31.8836 16.2504 32.1155 16.25H36.6154C36.8474 16.25 37.0699 16.3422 37.234 16.5063C37.3981 16.6704 37.4903 16.8929 37.4903 17.1249C37.4903 17.357 37.3981 17.5795 37.234 17.7436C37.0699 17.9076 36.8474 17.9998 36.6154 17.9998H32.1155C31.8836 17.9995 31.6613 17.9072 31.4973 17.7432C31.3333 17.5792 31.241 17.3568 31.2407 17.1249ZM32.856 20.5649V19.2484H35.8819V20.5611C34.8767 20.4421 33.8609 20.4434 32.856 20.5649Z" fill="white"/>
<path d="M42.7903 40.8716C42.643 40.8712 42.5001 40.9219 42.3861 41.015C42.272 41.1082 42.1938 41.238 42.1648 41.3824C42.1358 41.5268 42.1578 41.6767 42.227 41.8067C42.2962 41.9367 42.4083 42.0386 42.5443 42.0952C42.6803 42.1517 42.8317 42.1593 42.9726 42.1167C43.1136 42.0741 43.2354 41.9839 43.3173 41.8615C43.3991 41.7391 43.436 41.5921 43.4216 41.4455C43.4072 41.299 43.3424 41.1619 43.2383 41.0578C43.1192 40.9393 42.9582 40.8725 42.7903 40.8716Z" fill="white"/>
<path d="M34.1586 23.0142C32.2082 23.0142 30.3015 23.5925 28.6797 24.6762C27.058 25.7598 25.794 27.3 25.0476 29.102C24.3011 30.904 24.1059 32.8869 24.4864 34.7999C24.8669 36.7129 25.8061 38.4701 27.1853 39.8492C28.5645 41.2284 30.3217 42.1677 32.2347 42.5482C34.1477 42.9287 36.1306 42.7334 37.9326 41.987C39.7346 41.2406 41.2748 39.9766 42.3584 38.3548C43.442 36.7331 44.0204 34.8264 44.0204 32.8759C44.0174 30.2614 42.9774 27.7548 41.1286 25.906C39.2798 24.0572 36.7732 23.0172 34.1586 23.0142ZM34.1586 41.4666C32.4595 41.4672 30.7983 40.9637 29.3852 40.0201C27.9721 39.0764 26.8706 37.7349 26.22 36.1652C25.5694 34.5955 25.3989 32.8681 25.7301 31.2015C26.0613 29.5349 26.8793 28.004 28.0806 26.8023C29.282 25.6006 30.8127 24.7821 32.4792 24.4505C34.1457 24.1188 35.8731 24.2888 37.443 24.9389C39.0129 25.589 40.3548 26.6901 41.2988 28.1029C42.2429 29.5157 42.7468 31.1767 42.7468 32.8759C42.7443 35.1531 41.8387 37.3363 40.2287 38.9468C38.6188 40.5572 36.4358 41.4634 34.1586 41.4666Z" fill="white"/>
<path d="M38.3568 28.1912L35.208 31.34C34.9367 31.206 34.6381 31.1363 34.3354 31.1363C34.0327 31.1363 33.7341 31.206 33.4628 31.34L32.0548 29.932C31.9978 29.8654 31.9277 29.8112 31.8488 29.773C31.77 29.7348 31.684 29.7132 31.5965 29.7098C31.5089 29.7064 31.4215 29.7211 31.3399 29.753C31.2583 29.785 31.1842 29.8335 31.1222 29.8955C31.0602 29.9574 31.0117 30.0316 30.9798 30.1132C30.9478 30.1948 30.9331 30.2822 30.9365 30.3697C30.94 30.4573 30.9615 30.5433 30.9997 30.6221C31.038 30.701 31.0921 30.7711 31.1588 30.828L32.5668 32.236C32.4182 32.5372 32.3488 32.8714 32.3653 33.2068C32.3817 33.5423 32.4835 33.868 32.6608 34.1532C32.8381 34.4385 33.0853 34.6738 33.3788 34.8369C33.6724 35.0001 34.0027 35.0857 34.3386 35.0857C34.6745 35.0857 35.0048 35.0001 35.2984 34.8369C35.5919 34.6738 35.8391 34.4385 36.0164 34.1532C36.1937 33.868 36.2955 33.5423 36.3119 33.2068C36.3284 32.8714 36.259 32.5372 36.1104 32.236L39.1664 29.18L39.2586 29.0879C39.3625 28.9663 39.4167 28.81 39.4104 28.6502C39.4042 28.4904 39.3379 28.3388 39.2248 28.2257C39.1117 28.1126 38.9601 28.0463 38.8003 28.04C38.6405 28.0338 38.4842 28.088 38.3626 28.1919L38.3568 28.1912ZM34.337 33.8168C34.1978 33.8168 34.0617 33.7755 33.9459 33.6982C33.8301 33.6208 33.7399 33.5109 33.6866 33.3822C33.6333 33.2536 33.6194 33.1121 33.6465 32.9755C33.6737 32.8389 33.7407 32.7135 33.8392 32.615C33.9377 32.5166 34.0631 32.4495 34.1996 32.4224C34.3362 32.3952 34.4778 32.4091 34.6064 32.4624C34.735 32.5157 34.845 32.6059 34.9224 32.7217C34.9997 32.8375 35.041 32.9736 35.041 33.1128C35.041 33.2995 34.9668 33.4786 34.8348 33.6106C34.7028 33.7427 34.5237 33.8168 34.337 33.8168Z" fill="white"/>
<path d="M41.0533 32.4624H40.4645C40.2958 32.4624 40.1341 32.5294 40.0149 32.6487C39.8956 32.7679 39.8286 32.9296 39.8286 33.0982C39.8286 33.2669 39.8956 33.4286 40.0149 33.5478C40.1341 33.6671 40.2958 33.7341 40.4645 33.7341H41.0533C41.2219 33.7341 41.3836 33.6671 41.5029 33.5478C41.6221 33.4286 41.6891 33.2669 41.6891 33.0982C41.6891 32.9296 41.6221 32.7679 41.5029 32.6487C41.3836 32.5294 41.2219 32.4624 41.0533 32.4624Z" fill="white"/>
<path d="M28.2827 32.4473H27.6939C27.5253 32.4473 27.3636 32.5143 27.2443 32.6335C27.1251 32.7527 27.0581 32.9145 27.0581 33.0831C27.0581 33.2517 27.1251 33.4135 27.2443 33.5327C27.3636 33.652 27.5253 33.7189 27.6939 33.7189H28.2827C28.4514 33.7189 28.6131 33.652 28.7324 33.5327C28.8516 33.4135 28.9186 33.2517 28.9186 33.0831C28.9186 32.9145 28.8516 32.7527 28.7324 32.6335C28.6131 32.5143 28.4514 32.4473 28.2827 32.4473Z" fill="white"/>
<path d="M34.3808 27.6336C34.5493 27.6336 34.711 27.5666 34.8302 27.4475C34.9493 27.3283 35.0163 27.1666 35.0163 26.9981V26.4093C35.0163 26.3258 34.9999 26.2431 34.9679 26.1659C34.936 26.0888 34.8891 26.0187 34.8301 25.9597C34.771 25.9006 34.7009 25.8538 34.6238 25.8218C34.5466 25.7899 34.464 25.7734 34.3805 25.7734C34.297 25.7734 34.2143 25.7899 34.1371 25.8218C34.06 25.8538 33.9899 25.9006 33.9309 25.9597C33.8718 26.0187 33.825 26.0888 33.793 26.1659C33.7611 26.2431 33.7446 26.3258 33.7446 26.4093V26.9981C33.7446 27.0816 33.7611 27.1643 33.7931 27.2414C33.825 27.3186 33.8719 27.3887 33.931 27.4477C33.9901 27.5067 34.0602 27.5535 34.1374 27.5854C34.2146 27.6173 34.2973 27.6337 34.3808 27.6336Z" fill="white"/>
<path d="M34.3655 38.5459C34.197 38.5459 34.0353 38.6128 33.9161 38.732C33.7969 38.8512 33.73 39.0129 33.73 39.1814V39.7702C33.73 39.9389 33.797 40.1006 33.9162 40.2198C34.0355 40.3391 34.1972 40.4061 34.3658 40.4061C34.5345 40.4061 34.6962 40.3391 34.8154 40.2198C34.9347 40.1006 35.0017 39.9389 35.0017 39.7702V39.1814C35.0017 39.0979 34.9852 39.0152 34.9532 38.9381C34.9212 38.8609 34.8744 38.7908 34.8153 38.7318C34.7562 38.6728 34.6861 38.626 34.6089 38.5941C34.5317 38.5622 34.449 38.5458 34.3655 38.5459Z" fill="white"/>
<path d="M15.6357 36.3081C15.5315 36.3084 15.4289 36.3343 15.337 36.3836C15.2452 36.4329 15.1668 36.504 15.1089 36.5907C15.0511 36.6774 15.0154 36.777 15.0051 36.8808C14.9948 36.9845 15.0101 37.0892 15.0498 37.1856C15.0895 37.282 15.1523 37.3672 15.2327 37.4336C15.3131 37.5 15.4085 37.5456 15.5107 37.5664C15.6128 37.5872 15.7185 37.5825 15.8185 37.5528C15.9184 37.5231 16.0095 37.4693 16.0837 37.3961C16.1736 37.3075 16.235 37.1941 16.2602 37.0704C16.2854 36.9467 16.2732 36.8184 16.2251 36.7016C16.1771 36.5849 16.0953 36.4852 15.9904 36.4151C15.8854 36.345 15.7619 36.3078 15.6357 36.3081Z" fill="white"/>
</g>
<defs>
<clipPath id="clip0">
<rect width="32" height="30.7174" fill="white" transform="translate(15 15)"/>
</clipPath>
</defs>
</svg>
