<svg width="26" height="24" viewBox="0 0 26 24" fill="none" xmlns="http://www.w3.org/2000/svg">
<g clip-path="url(#clip0)">
<path d="M13.0042 5.83801C9.31759 5.83801 6.33301 8.59601 6.33301 11.996C6.33301 15.399 9.32084 18.154 13.0042 18.154C16.6908 18.154 19.6753 15.396 19.6753 11.996C19.6753 8.59301 16.6875 5.83801 13.0042 5.83801ZM13.0042 15.993C10.6111 15.993 8.67409 14.204 8.67409 11.996C8.67409 9.78801 10.6122 7.99901 13.0042 7.99901C15.3962 7.99901 17.3343 9.78801 17.3343 11.996C17.3353 14.204 15.3973 15.993 13.0042 15.993Z" fill="#192A3E"/>
<path d="M18.3606 0.0758749C15.9686 -0.0271251 10.0438 -0.0221251 7.64966 0.0758749C5.54583 0.166875 3.69008 0.635875 2.194 2.01687C-0.306337 4.32487 0.0132462 7.43488 0.0132462 11.9959C0.0132462 16.6639 -0.26842 19.7019 2.194 21.9749C4.70408 24.2909 8.122 23.9879 13.0046 23.9879C18.0139 23.9879 19.7429 23.9909 21.5142 23.3579C23.9224 22.4949 25.7402 20.5079 25.9179 16.9389C26.0306 14.7299 26.0241 9.26188 25.9179 7.05188C25.7034 2.83888 23.254 0.283875 18.3606 0.0758749ZM22.1468 20.4479C20.5077 21.9609 18.2338 21.8259 12.9732 21.8259C7.5565 21.8259 5.38441 21.8999 3.7995 20.4329C1.97408 18.7559 2.3045 16.0629 2.3045 11.9799C2.3045 6.45487 1.69025 2.47587 7.69733 2.19187C9.0775 2.14687 9.48375 2.13187 12.958 2.13187L13.0067 2.16187C18.7798 2.16187 23.3092 1.60387 23.5812 7.14787C23.6429 8.41288 23.657 8.79288 23.657 11.9949C23.6559 16.9369 23.7577 18.9539 22.1468 20.4479Z" fill="#192A3E"/>
<path d="M19.9398 7.03394C20.8007 7.03394 21.4987 6.38968 21.4987 5.59494C21.4987 4.80021 20.8007 4.15594 19.9398 4.15594C19.0788 4.15594 18.3809 4.80021 18.3809 5.59494C18.3809 6.38968 19.0788 7.03394 19.9398 7.03394Z" fill="#192A3E"/>
</g>
<defs>
<clipPath id="clip0">
<rect width="26" height="24" fill="white"/>
</clipPath>
</defs>
</svg>
