<svg width="25" height="24" viewBox="0 0 25 24" fill="none" xmlns="http://www.w3.org/2000/svg">
<path d="M23.9375 5.34C23.2594 4.182 22.5234 3.969 21.025 3.888C19.5281 3.7905 15.7641 3.75 12.5031 3.75C9.23594 3.75 5.47031 3.7905 3.975 3.8865C2.47969 3.969 1.74219 4.1805 1.05781 5.34C0.359375 6.4965 0 8.4885 0 11.9955C0 11.9985 0 12 0 12C0 12.003 0 12.0045 0 12.0045V12.0075C0 15.4995 0.359375 17.5065 1.05781 18.651C1.74219 19.809 2.47812 20.019 3.97344 20.1165C5.47031 20.2005 9.23594 20.25 12.5031 20.25C15.7641 20.25 19.5281 20.2005 21.0266 20.118C22.525 20.0205 23.2609 19.8105 23.9391 18.6525C24.6437 17.508 25 15.501 25 12.009C25 12.009 25 12.0045 25 12.0015C25 12.0015 25 11.9985 25 11.997C25 8.4885 24.6437 6.4965 23.9375 5.34ZM9.375 16.5V7.5L17.1875 12L9.375 16.5Z" fill="#192A3E"/>
</svg>
